<svg width="25" height="25" viewBox="0 0 25 25" fill="none" xmlns="http://www.w3.org/2000/svg">
<g clip-path="url(#clip0_100_1890)">
<path d="M8.70897 0.821858C6.21109 1.6884 4.05691 3.33312 2.56286 5.51444C1.06881 7.69576 0.313644 10.2987 0.408275 12.9409C0.502906 15.5832 1.44235 18.1254 3.08862 20.1943C4.73488 22.2631 7.0012 23.7495 9.55468 24.4351C11.6248 24.9693 13.7938 24.9928 15.875 24.5035C17.7604 24.08 19.5035 23.1741 20.9336 21.8746C22.422 20.4807 23.5024 18.7076 24.0586 16.7457C24.6631 14.6122 24.7707 12.3686 24.373 10.1871H12.748V15.0094H19.4805C19.3459 15.7785 19.0576 16.5125 18.6327 17.1676C18.2078 17.8227 17.6552 18.3853 17.0078 18.8219C16.1857 19.3657 15.259 19.7316 14.2871 19.8961C13.3124 20.0773 12.3126 20.0773 11.3379 19.8961C10.35 19.6918 9.41541 19.2841 8.59374 18.6988C7.27372 17.7644 6.28256 16.4369 5.76171 14.9058C5.23205 13.3461 5.23205 11.6551 5.76171 10.0953C6.13246 9.00197 6.74537 8.0065 7.55468 7.18319C8.48083 6.22371 9.65337 5.53787 10.9437 5.20091C12.2339 4.86396 13.5921 4.88891 14.8691 5.27303C15.8667 5.57926 16.779 6.11431 17.5332 6.83553C18.2923 6.08032 19.0501 5.32316 19.8066 4.56405C20.1973 4.15584 20.623 3.76717 21.0078 3.3492C19.8566 2.27787 18.5052 1.44423 17.0312 0.896076C14.3471 -0.0785529 11.4101 -0.104745 8.70897 0.821858Z" fill="white"/>
<path d="M8.70898 0.822318C11.4099 -0.104914 14.3469 -0.0794112 17.0312 0.894584C18.5055 1.44647 19.8562 2.28411 21.0059 3.35943C20.6152 3.7774 20.2031 4.16802 19.8047 4.57427C19.0469 5.33078 18.2897 6.08469 17.5332 6.83599C16.779 6.11477 15.8667 5.57972 14.8691 5.27349C13.5925 4.88802 12.2344 4.86163 10.9438 5.19721C9.65316 5.53278 8.47991 6.21736 7.55273 7.17583C6.74342 7.99915 6.13052 8.99462 5.75977 10.0879L1.71094 6.95318C3.16017 4.07927 5.66943 1.88096 8.70898 0.822318Z" fill="#E33629"/>
<path d="M0.636713 10.0591C0.854333 8.98055 1.21563 7.93609 1.71093 6.95361L5.75976 10.0962C5.2301 11.656 5.2301 13.347 5.75976 14.9067C4.4108 15.9484 3.06119 16.9953 1.71093 18.0474C0.470992 15.5792 0.0928316 12.7671 0.636713 10.0591Z" fill="#F8BD00"/>
<path d="M12.748 10.1851H24.373C24.7707 12.3666 24.6631 14.6102 24.0586 16.7437C23.5024 18.7055 22.422 20.4787 20.9336 21.8726C19.6269 20.853 18.3144 19.8413 17.0078 18.8218C17.6556 18.3848 18.2085 17.8216 18.6334 17.1658C19.0583 16.51 19.3464 15.7752 19.4805 15.0054H12.748C12.7461 13.3999 12.748 11.7925 12.748 10.1851Z" fill="#587DBD"/>
<path d="M1.70898 18.0469C3.05924 17.0052 4.40885 15.9583 5.75781 14.9062C6.2797 16.4379 7.27228 17.7654 8.59375 18.6992C9.41798 19.2818 10.3546 19.6862 11.3438 19.8867C12.3185 20.068 13.3182 20.068 14.293 19.8867C15.2648 19.7222 16.1916 19.3563 17.0137 18.8125C18.3203 19.832 19.6328 20.8438 20.9395 21.8633C19.5096 23.1635 17.7664 24.0701 15.8809 24.4941C13.7996 24.9834 11.6307 24.96 9.56055 24.4258C7.92325 23.9886 6.3939 23.218 5.06836 22.1621C3.66535 21.0482 2.51944 19.6445 1.70898 18.0469Z" fill="#319F43"/>
</g>
<defs>
<clipPath id="clip0_100_1890">
<rect width="25" height="25" fill="white"/>
</clipPath>
</defs>
</svg>
