<svg width="19" height="13" viewBox="0 0 19 13" fill="none" xmlns="http://www.w3.org/2000/svg">
<path d="M18.8852 6.01837C17.0964 2.52811 13.555 0.166626 9.5 0.166626C5.44501 0.166626 1.90262 2.52976 0.114774 6.0187C0.0393153 6.16797 0 6.33288 0 6.50014C0 6.66739 0.0393153 6.8323 0.114774 6.98157C1.90361 10.4718 5.44501 12.8333 9.5 12.8333C13.555 12.8333 17.0974 10.4702 18.8852 6.98124C18.9607 6.83197 19 6.66706 19 6.49981C19 6.33255 18.9607 6.16764 18.8852 6.01837ZM9.5 11.25C8.56054 11.25 7.64217 10.9714 6.86104 10.4495C6.0799 9.92752 5.47108 9.18567 5.11156 8.31772C4.75205 7.44977 4.65798 6.4947 4.84126 5.57329C5.02454 4.65188 5.47694 3.80551 6.14124 3.14121C6.80554 2.47691 7.65191 2.02451 8.57332 1.84123C9.49473 1.65795 10.4498 1.75202 11.3177 2.11154C12.1857 2.47105 12.9276 3.07987 13.4495 3.86101C13.9714 4.64214 14.25 5.56051 14.25 6.49997C14.2503 7.12384 14.1277 7.74165 13.8891 8.31808C13.6505 8.89451 13.3006 9.41827 12.8594 9.85941C12.4183 10.3006 11.8945 10.6504 11.3181 10.889C10.7417 11.1276 10.1239 11.2503 9.5 11.25ZM9.5 3.3333C9.21735 3.33725 8.93653 3.3793 8.66512 3.45832C8.88884 3.76234 8.9962 4.13647 8.96772 4.51287C8.93925 4.88926 8.77683 5.24298 8.50992 5.50989C8.24301 5.7768 7.88929 5.93922 7.51289 5.96769C7.1365 5.99617 6.76237 5.88881 6.45834 5.66509C6.28522 6.30291 6.31647 6.97896 6.5477 7.59808C6.77892 8.21721 7.19848 8.74823 7.74732 9.11642C8.29615 9.48461 8.94663 9.67141 9.60719 9.65055C10.2678 9.62968 10.9051 9.40219 11.4297 9.00009C11.9542 8.598 12.3394 8.04155 12.531 7.40907C12.7227 6.77658 12.7112 6.09991 12.4982 5.47429C12.2852 4.84867 11.8813 4.30561 11.3435 3.92154C10.8056 3.53748 10.1609 3.33174 9.5 3.3333Z" fill="black"/>
</svg>
