<svg width="21" height="19" viewBox="0 0 21 19" fill="none" xmlns="http://www.w3.org/2000/svg">
<path d="M3.79167 18.167V16.2503H17.2083V18.167H3.79167ZM3.79167 14.8128L2.56979 7.1222C2.53785 7.1222 2.50175 7.12636 2.4615 7.13466C2.42125 7.14297 2.38547 7.1468 2.35417 7.14616C1.95486 7.14616 1.61561 7.00624 1.33642 6.72641C1.05722 6.44658 0.917305 6.10733 0.916666 5.70866C0.916027 5.30999 1.05594 4.97074 1.33642 4.69091C1.61689 4.41108 1.95614 4.27116 2.35417 4.27116C2.75219 4.27116 3.09176 4.41108 3.37287 4.69091C3.65399 4.97074 3.79358 5.30999 3.79167 5.70866C3.79167 5.82047 3.77953 5.92429 3.75525 6.02012C3.73097 6.11595 3.70318 6.2038 3.67187 6.28366L6.66667 7.62533L9.66146 3.52845C9.48576 3.40067 9.34201 3.23297 9.23021 3.02533C9.1184 2.81769 9.0625 2.59408 9.0625 2.35449C9.0625 1.95519 9.20242 1.61562 9.48225 1.33579C9.76208 1.05595 10.1013 0.916355 10.5 0.916994C10.8987 0.917633 11.2382 1.05755 11.5187 1.33674C11.7992 1.61594 11.9388 1.95519 11.9375 2.35449C11.9375 2.59408 11.8816 2.81769 11.7698 3.02533C11.658 3.23297 11.5142 3.40067 11.3385 3.52845L14.3333 7.62533L17.3281 6.28366C17.2962 6.2038 17.2681 6.11595 17.2438 6.02012C17.2195 5.92429 17.2077 5.82047 17.2083 5.70866C17.2083 5.30936 17.3482 4.96979 17.6281 4.68995C17.9079 4.41012 18.2472 4.27052 18.6458 4.27116C19.0445 4.2718 19.3841 4.41172 19.6645 4.69091C19.945 4.97011 20.0846 5.30936 20.0833 5.70866C20.0821 6.10797 19.9425 6.44754 19.6645 6.72737C19.3866 7.0072 19.0471 7.1468 18.6458 7.14616C18.6139 7.14616 18.5781 7.14233 18.5385 7.13466C18.4989 7.12699 18.4628 7.12284 18.4302 7.1222L17.2083 14.8128H3.79167Z" fill="#2C2828"/>
</svg>
