<svg width="73" height="73" viewBox="0 0 73 73" fill="none" xmlns="http://www.w3.org/2000/svg">
<rect width="72.5195" height="72.5195" rx="36.2598" fill="#989898" fill-opacity="0.13"/>
<g clip-path="url(#clip0_60_2078)">
<path d="M24.9589 34.0251H37.0455V37.0468H24.9589V41.5793L17.4048 35.536L24.9589 29.4927V34.0251ZM23.4481 44.6009H27.5394C29.2839 46.1394 31.4353 47.1419 33.7355 47.488C36.0356 47.8341 38.3868 47.5092 40.5068 46.5521C42.6268 45.5951 44.4257 44.0467 45.6875 42.0927C46.9493 40.1386 47.6205 37.862 47.6205 35.536C47.6205 33.2099 46.9493 30.9333 45.6875 28.9793C44.4257 27.0252 42.6268 25.4768 40.5068 24.5198C38.3868 23.5628 36.0356 23.2378 33.7355 23.5839C31.4353 23.93 29.2839 24.9325 27.5394 26.471H23.4481C24.8546 24.5938 26.6792 23.0702 28.7773 22.0212C30.8753 20.9721 33.189 20.4266 35.5347 20.4277C43.8789 20.4277 50.6429 27.1917 50.6429 35.536C50.6429 43.8802 43.8789 50.6442 35.5347 50.6442C33.189 50.6454 30.8753 50.0998 28.7773 49.0508C26.6792 48.0018 24.8546 46.4782 23.4481 44.6009Z" fill="#DE5753"/>
</g>
<defs>
<clipPath id="clip0_60_2078">
<rect width="36.2598" height="36.2598" fill="white" transform="translate(17.4048 17.4043)"/>
</clipPath>
</defs>
</svg>
