<svg width="19" height="20" viewBox="0 0 19 20" fill="none" xmlns="http://www.w3.org/2000/svg">
<path fill-rule="evenodd" clip-rule="evenodd" d="M5.45921 4.76593V3.75293C5.45921 2.75837 5.8543 1.80454 6.55756 1.10128C7.26082 0.398018 8.21465 0.00292969 9.20921 0.00292969C10.2038 0.00292969 11.1576 0.398018 11.8609 1.10128C12.5641 1.80454 12.9592 2.75837 12.9592 3.75293V4.76593C14.2562 4.80293 15.0462 4.93593 15.6512 5.43293C16.4812 6.11293 16.7112 7.26693 17.1742 9.57593L17.7742 12.5759C18.4382 15.8959 18.7702 17.5559 17.8702 18.6549C16.9702 19.7539 15.2762 19.7529 11.8892 19.7529H6.52921C3.14321 19.7529 1.44921 19.7529 0.549208 18.6549C-0.350792 17.5569 -0.0187918 15.8969 0.645208 12.5759L1.24521 9.57593C1.70721 7.26693 1.93821 6.11293 2.76721 5.43293C3.37321 4.93693 4.16321 4.80293 5.46021 4.76593M6.95921 3.75293C6.95921 3.15619 7.19626 2.5839 7.61822 2.16194C8.04017 1.73998 8.61247 1.50293 9.20921 1.50293C9.80595 1.50293 10.3782 1.73998 10.8002 2.16194C11.2222 2.5839 11.4592 3.15619 11.4592 3.75293V4.75293H6.95921V3.75293ZM12.2092 8.75293C12.4744 8.75293 12.7288 8.64757 12.9163 8.46004C13.1039 8.2725 13.2092 8.01815 13.2092 7.75293C13.2092 7.48771 13.1039 7.23336 12.9163 7.04582C12.7288 6.85829 12.4744 6.75293 12.2092 6.75293C11.944 6.75293 11.6896 6.85829 11.5021 7.04582C11.3146 7.23336 11.2092 7.48771 11.2092 7.75293C11.2092 8.01815 11.3146 8.2725 11.5021 8.46004C11.6896 8.64757 11.944 8.75293 12.2092 8.75293ZM7.20921 7.75293C7.20921 8.01815 7.10385 8.2725 6.91631 8.46004C6.72878 8.64757 6.47442 8.75293 6.20921 8.75293C5.94399 8.75293 5.68964 8.64757 5.5021 8.46004C5.31457 8.2725 5.20921 8.01815 5.20921 7.75293C5.20921 7.48771 5.31457 7.23336 5.5021 7.04582C5.68964 6.85829 5.94399 6.75293 6.20921 6.75293C6.47442 6.75293 6.72878 6.85829 6.91631 7.04582C7.10385 7.23336 7.20921 7.48771 7.20921 7.75293Z" fill="#2C2828"/>
</svg>
