<svg width="25" height="25" viewBox="0 0 25 25" fill="none" xmlns="http://www.w3.org/2000/svg">
<path d="M11.2917 14.6146H12.5V9.78125M17.3333 9.47917V7.66667M8.875 17.9375C10.6875 19.75 14.3125 19.75 16.125 17.9375M7.66667 9.47917V7.66667M9.35833 23.375C6.65167 23.375 5.29833 23.375 4.264 22.8482C3.35459 22.3848 2.61521 21.6454 2.15183 20.736C1.625 19.7017 1.625 18.3483 1.625 15.6417M23.375 15.6417C23.375 18.3483 23.375 19.7017 22.8482 20.736C22.3848 21.6454 21.6454 22.3848 20.736 22.8482C19.7017 23.375 18.3483 23.375 15.6417 23.375M15.6417 1.625C18.3483 1.625 19.7017 1.625 20.736 2.15183C21.6454 2.61521 22.3848 3.35459 22.8482 4.264C23.375 5.29833 23.375 6.65167 23.375 9.35833M9.35833 1.625C6.65167 1.625 5.29833 1.625 4.264 2.15183C3.35459 2.61521 2.61521 3.35459 2.15183 4.264C1.625 5.29833 1.625 6.65167 1.625 9.35833" stroke="#2C2828" stroke-width="1.8125" stroke-linecap="round" stroke-linejoin="round"/>
</svg>
