<svg width="25" height="25" viewBox="0 0 25 25" fill="none" xmlns="http://www.w3.org/2000/svg">
<path d="M5.89209 20.5V18.5H19.8921V20.5H5.89209ZM5.89209 17L4.61709 8.975C4.58376 8.975 4.54609 8.97934 4.50409 8.988C4.46209 8.99667 4.42476 9.00067 4.39209 9C3.97543 9 3.62143 8.854 3.33009 8.562C3.03876 8.27 2.89276 7.916 2.89209 7.5C2.89143 7.084 3.03743 6.73 3.33009 6.438C3.62276 6.146 3.97676 6 4.39209 6C4.80743 6 5.16176 6.146 5.45509 6.438C5.74843 6.73 5.89409 7.084 5.89209 7.5C5.89209 7.61667 5.87943 7.725 5.85409 7.825C5.82876 7.925 5.79976 8.01667 5.76709 8.1L8.89209 9.5L12.0171 5.225C11.8338 5.09167 11.6838 4.91667 11.5671 4.7C11.4504 4.48334 11.3921 4.25 11.3921 4C11.3921 3.58334 11.5381 3.229 11.8301 2.937C12.1221 2.645 12.4761 2.49934 12.8921 2.5C13.3081 2.50067 13.6624 2.64667 13.9551 2.938C14.2478 3.22934 14.3934 3.58334 14.3921 4C14.3921 4.25 14.3338 4.48334 14.2171 4.7C14.1004 4.91667 13.9504 5.09167 13.7671 5.225L16.8921 9.5L20.0171 8.1C19.9838 8.01667 19.9544 7.925 19.9291 7.825C19.9038 7.725 19.8914 7.61667 19.8921 7.5C19.8921 7.08334 20.0381 6.729 20.3301 6.437C20.6221 6.145 20.9761 5.99934 21.3921 6C21.8081 6.00067 22.1624 6.14667 22.4551 6.438C22.7478 6.72934 22.8934 7.08334 22.8921 7.5C22.8908 7.91667 22.7451 8.271 22.4551 8.563C22.1651 8.855 21.8108 9.00067 21.3921 9C21.3588 9 21.3214 8.996 21.2801 8.988C21.2388 8.98 21.2011 8.97567 21.1671 8.975L19.8921 17H5.89209Z" fill="white"/>
</svg>
