<svg width="24" height="25" viewBox="0 0 24 25" fill="none" xmlns="http://www.w3.org/2000/svg">
<path d="M11.9844 2.73145C15.0531 2.73145 17.5225 5.14671 17.5225 8.12793V9.66113C19.2448 10.1987 20.5 11.7578 20.5 13.6201V18.5566C20.5 20.862 18.5888 22.7313 16.2324 22.7314H7.76855C5.41122 22.7313 3.5 20.862 3.5 18.5566V13.6201C3.5 11.7578 4.7562 10.1987 6.47754 9.66113V8.12793C6.4877 5.14684 8.95646 2.73165 11.9844 2.73145ZM11.9951 14.1162C11.5074 14.1162 11.1113 14.5035 11.1113 14.9805V17.1865C11.1114 17.6734 11.5074 18.0605 11.9951 18.0605C12.4929 18.0604 12.8886 17.6733 12.8887 17.1865V14.9805C12.8887 14.5035 12.4929 14.1163 11.9951 14.1162ZM12.0049 4.4707C9.94227 4.47081 8.26611 6.1002 8.25586 8.10742V9.44531H15.7441V8.12793C15.7441 6.11064 14.0676 4.4707 12.0049 4.4707Z" fill="#2C2828"/>
</svg>
