<svg width="23" height="25" viewBox="0 0 23 25" fill="none" xmlns="http://www.w3.org/2000/svg">
<path fill-rule="evenodd" clip-rule="evenodd" d="M16.8298 1.34574L16.831 2.25153C20.1595 2.5124 22.3583 4.78052 22.3619 8.25877L22.375 18.4399C22.3798 22.2322 19.9973 24.5655 16.1784 24.5716L6.85019 24.5836C3.05519 24.5885 0.642903 22.1996 0.638131 18.3964L0.625008 8.33486C0.620236 4.83366 2.74143 2.57158 6.06996 2.26603L6.06876 1.36023C6.06757 0.82883 6.46127 0.429072 6.9862 0.429072C7.51113 0.427864 7.90482 0.826415 7.90602 1.35782L7.90721 2.20323L14.9938 2.19356L14.9926 1.34815C14.9914 0.816753 15.3851 0.418203 15.91 0.416995C16.423 0.415787 16.8286 0.814338 16.8298 1.34574ZM2.46345 8.70805L20.5258 8.6839V8.26119C20.4745 5.66458 19.1717 4.30226 16.8334 4.09936L16.8346 5.02931C16.8346 5.54863 16.4302 5.96047 15.9172 5.96047C15.3922 5.96168 14.9973 5.55105 14.9973 5.03173L14.9961 4.05347L7.9096 4.06313L7.91079 5.04018C7.91079 5.56071 7.51829 5.97134 6.99336 5.97134C6.46843 5.97255 6.07354 5.56313 6.07354 5.0426L6.07234 4.11264C3.74595 4.34574 2.45868 5.71288 2.46226 8.33245L2.46345 8.70805ZM15.4149 14.1972V14.2105C15.4268 14.766 15.8802 15.1875 16.4302 15.1754C16.967 15.1622 17.3953 14.702 17.3834 14.1465C17.3583 13.6151 16.9276 13.1815 16.392 13.1827C15.8432 13.1948 15.4137 13.6416 15.4149 14.1972ZM16.4003 19.6199C15.8515 19.6078 15.4089 19.1501 15.4077 18.5945C15.3958 18.039 15.836 17.5788 16.3848 17.5655H16.3967C16.9575 17.5655 17.412 18.0233 17.412 18.5909C17.4132 19.1585 16.9599 19.6187 16.4003 19.6199ZM10.4996 14.2165C10.5235 14.7721 10.978 15.2056 11.5268 15.1815C12.0637 15.1561 12.492 14.6972 12.4681 14.1416C12.455 13.5981 12.0136 13.1754 11.4767 13.1766C10.9279 13.2008 10.4985 13.6609 10.4996 14.2165ZM11.5316 19.5655C10.9828 19.5897 10.5295 19.1561 10.5044 18.6006C10.5044 18.045 10.9327 17.5861 11.4815 17.5607C12.0184 17.5595 12.461 17.9822 12.4729 18.5245C12.498 19.0812 12.0685 19.5402 11.5316 19.5655ZM5.5844 14.2588C5.60826 14.8143 6.0628 15.2491 6.61159 15.2237C7.14845 15.1996 7.57674 14.7394 7.55169 14.1839C7.53976 13.6404 7.09834 13.2177 6.56029 13.2189C6.0115 13.2431 5.58321 13.7032 5.5844 14.2588ZM6.61636 19.5716C6.06757 19.5969 5.61422 19.1621 5.58917 18.6066C5.58798 18.051 6.01747 17.5909 6.56626 17.5667C7.10311 17.5655 7.54573 17.9882 7.55766 18.5317C7.58271 19.0873 7.15441 19.5474 6.61636 19.5716Z" fill="white"/>
</svg>
