<svg width="16" height="20" viewBox="0 0 16 20" fill="none" xmlns="http://www.w3.org/2000/svg">
<path d="M6.27713 14.5154C6.28213 14.4054 6.46413 14.3614 6.51713 14.4574C6.77113 14.9074 7.20313 15.5684 7.69413 15.8694C8.18413 16.1694 8.96913 16.2554 9.48513 16.2774C9.59513 16.2824 9.63913 16.4634 9.54313 16.5174C9.09313 16.7714 8.43213 17.2034 8.13113 17.6934C7.83013 18.1834 7.74513 18.9694 7.72313 19.4854C7.71813 19.5954 7.53613 19.6384 7.48313 19.5424C7.22913 19.0924 6.79713 18.4324 6.30713 18.1314C5.81713 17.8304 5.03113 17.7454 4.51513 17.7234C4.40513 17.7184 4.36213 17.5364 4.45813 17.4834C4.90813 17.2294 5.56813 16.7974 5.86913 16.3064C6.17013 15.8164 6.25513 15.0304 6.27713 14.5154ZM14.4921 13.5154C14.4841 13.4054 14.2921 13.3594 14.2351 13.4534C14.0631 13.7364 13.8141 14.0764 13.5381 14.2464C13.2621 14.4164 12.8451 14.4824 12.5151 14.5084C12.4051 14.5164 12.3601 14.7084 12.4531 14.7654C12.7361 14.9374 13.0771 15.1854 13.2461 15.4624C13.4151 15.7394 13.4831 16.1554 13.5081 16.4854C13.5171 16.5954 13.7081 16.6404 13.7661 16.5464C13.9381 16.2644 14.1861 15.9234 14.4631 15.7544C14.7401 15.5854 15.1551 15.5174 15.4851 15.4924C15.5951 15.4834 15.6411 15.2924 15.5471 15.2344C15.2641 15.0624 14.9231 14.8144 14.7541 14.5374C14.5851 14.2604 14.5181 13.8454 14.4921 13.5154ZM10.7041 2.00238L10.4621 1.69638C9.52513 0.513384 9.05713 -0.0786163 8.51213 0.00838374C7.96713 0.0963837 7.70613 0.804384 7.18513 2.22138L7.05113 2.58738C6.90213 2.99038 6.82813 3.19138 6.68713 3.33938C6.54413 3.48738 6.35113 3.56438 5.96313 3.71938L5.61013 3.86038L5.36213 3.96038C4.16213 4.44038 3.55813 4.71338 3.48113 5.24338C3.39913 5.80838 3.97113 6.29238 5.11513 7.25938L5.41113 7.50938C5.73613 7.78438 5.89913 7.92238 5.99113 8.10938C6.08513 8.29638 6.09813 8.51238 6.12513 8.94438L6.14913 9.33738C6.24213 10.8574 6.28913 11.6174 6.78313 11.8794C7.27713 12.1414 7.89113 11.7324 9.11913 10.9134L9.43713 10.7014C9.78713 10.4684 9.96113 10.3514 10.1601 10.3204C10.3601 10.2884 10.5621 10.3444 10.9661 10.4564L11.3341 10.5584C12.7561 10.9524 13.4671 11.1494 13.8541 10.7464C14.2421 10.3434 14.0501 9.60638 13.6641 8.13338L13.5651 7.75238C13.4551 7.33338 13.4011 7.12438 13.4311 6.91738C13.4611 6.71038 13.5731 6.52838 13.7961 6.16538L13.9991 5.83538C14.7851 4.55938 15.1781 3.92138 14.9231 3.40938C14.6691 2.89938 13.9361 2.85238 12.4691 2.76138L12.0901 2.73738C11.6731 2.71138 11.4651 2.69838 11.2841 2.60238C11.1041 2.50638 10.9701 2.33838 10.7041 2.00238ZM4.83513 11.3264C2.69813 12.3704 0.919129 14.0244 0.248129 16.0004C-0.503871 11.2934 0.540129 8.25338 2.21313 6.36338C2.35713 6.65838 2.54513 6.90238 2.71313 7.09338C3.06313 7.48938 3.56513 7.91338 4.07513 8.34438L4.44213 8.65438L4.61213 8.79938C4.61713 8.86338 4.62213 8.93938 4.62713 9.03638L4.65713 9.52138C4.69713 10.1764 4.73713 10.8154 4.83513 11.3264Z" fill="white"/>
</svg>
