<svg width="118" height="127" viewBox="0 0 118 127" fill="none" xmlns="http://www.w3.org/2000/svg">
<path d="M55.5161 125.102C55.081 125.102 54.6541 124.983 54.2823 124.757C53.9104 124.531 53.6078 124.207 53.4076 123.821C51.2991 119.731 48.6266 114.929 43.8404 109.731C43.5647 109.433 43.3712 109.068 43.2788 108.673C43.1864 108.277 43.1983 107.865 43.3132 107.475C45.0896 101.302 47.8834 92.8632 47.9097 92.7789C47.999 92.4739 48.1488 92.1901 48.3501 91.9443C48.5515 91.6984 48.8002 91.4957 49.0816 91.3481C49.363 91.2005 49.6712 91.111 49.9879 91.0851C50.3045 91.0591 50.6232 91.0972 50.9249 91.197C51.2265 91.2969 51.505 91.4564 51.7436 91.6662C51.9823 91.8759 52.1763 92.1316 52.314 92.418C52.4517 92.7043 52.5304 93.0154 52.5453 93.3328C52.5602 93.6502 52.5111 93.9674 52.4008 94.2653C52.3745 94.3444 49.9655 101.613 48.2207 107.522C51.9404 111.812 55.097 116.56 57.6141 121.649C57.799 122.011 57.8881 122.414 57.8728 122.819C57.8576 123.225 57.7384 123.62 57.5269 123.966C57.3153 124.313 57.0183 124.599 56.6644 124.798C56.3105 124.997 55.9115 125.101 55.5056 125.102H55.5161Z" fill="#E9E9E9"/>
<path d="M59.4537 127H41.1151L50.8353 121.486L58.9793 121.803L59.4537 127Z" fill="#263238"/>
<path d="M57.7031 104.783C66.05 102.174 71.0632 94.4495 68.9003 87.5307C66.7374 80.612 58.2175 77.1186 49.8705 79.7279C41.5236 82.3373 36.5104 90.0614 38.6733 96.9801C40.8362 103.899 49.3561 107.392 57.7031 104.783Z" fill="#263238"/>
<path d="M12.0601 83.6499C11.5143 83.6478 10.9861 83.457 10.5648 83.11C10.1435 82.763 9.8551 82.281 9.74841 81.7458C9.64173 81.2105 9.72333 80.6548 9.97938 80.1728C10.2354 79.6908 10.6502 79.3121 11.1535 79.1009C11.5631 78.9296 11.9228 78.6577 12.1993 78.3103C12.4758 77.9629 12.66 77.5512 12.7348 77.1136C12.7821 76.5989 12.9969 76.1139 13.3464 75.733C13.6958 75.3521 14.1606 75.0964 14.6694 75.0051C15.2564 74.8853 15.837 74.7358 16.4089 74.5571C19.6138 73.6241 23.583 72.4486 36.0758 75.9592C48.4 69.0697 48.5423 56.1447 48.5423 55.5859C48.5423 54.9595 48.79 54.3586 49.2314 53.9142C49.6729 53.4698 50.2722 53.218 50.8985 53.2139C51.5226 53.2138 52.1214 53.4603 52.5647 53.8996C53.0079 54.3389 53.2597 54.9355 53.2653 55.5596C53.2653 56.2501 53.1915 72.4749 37.4516 80.5979C36.9152 80.8761 36.292 80.9365 35.7121 80.7666C23.7991 77.3297 20.4256 78.3102 17.753 79.0956L17.0256 79.3064C16.6739 80.2379 16.1352 81.0875 15.4426 81.8028C14.7499 82.5181 13.9181 83.084 12.9984 83.4654C12.7014 83.5898 12.3821 83.6526 12.0601 83.6499Z" fill="#263238"/>
<path d="M39.6972 66.7235C35.2114 48.8962 23.2615 2.91006 61.5569 0.100493C95.9148 -2.42442 105.34 43.3246 107.633 59.1382C108.781 67.1399 109.404 75.208 109.499 83.291C109.543 87.3797 108.157 91.3554 105.582 94.5313C103.006 97.7073 99.4025 99.8842 95.3929 100.686C76.6748 104.492 58.9635 105.03 47.0294 100.322C45.462 99.6898 44.1412 98.5672 43.2643 97.1221C42.3874 95.6771 42.0015 93.9872 42.1641 92.3048C42.6227 87.2022 42.6332 78.3782 39.6972 66.7235Z" fill="#E9E9E9"/>
<path opacity="0.1" d="M107.654 59.1487C105.493 44.2206 96.9954 2.74657 67.2446 0.110956C65.5475 -0.0610866 63.8375 0.27309 62.33 1.07138C60.8226 1.86966 59.5851 3.09633 58.7737 4.59677C57.4454 7.16913 57.4876 10.2844 59.4748 13.3681C66.0111 23.5574 81.6509 58.7006 79.2894 77.851C78.2351 86.5643 72.7478 93.5224 77.5024 103.316C83.5125 102.79 89.4864 101.91 95.3929 100.681C99.4025 99.8789 103.006 97.702 105.582 94.526C108.157 91.35 109.543 87.3744 109.499 83.2856C109.41 75.2084 108.794 67.1455 107.654 59.1487Z" fill="black"/>
<path d="M102.509 83.5386C102.447 83.5386 102.388 83.5143 102.343 83.4709C102.299 83.4276 102.273 83.3686 102.272 83.3066C102.182 75.2341 101.561 67.1762 100.411 59.1855C94.7182 19.8305 79.3948 -0.0683829 56.0801 1.65004C56.049 1.65218 56.0177 1.64816 55.9881 1.63818C55.9585 1.62821 55.9311 1.61248 55.9076 1.59191C55.8841 1.57134 55.8649 1.54632 55.8511 1.5183C55.8373 1.49029 55.8291 1.45982 55.8271 1.42865C55.8242 1.36603 55.8456 1.30471 55.8868 1.25753C55.9281 1.21036 55.9861 1.181 56.0485 1.17562C79.6373 -0.563883 95.1452 19.4773 100.854 59.117C102.003 67.1291 102.626 75.2078 102.72 83.3013C102.72 83.3643 102.695 83.4246 102.65 83.4691C102.606 83.5136 102.546 83.5386 102.483 83.5386H102.509Z" fill="#263238"/>
<path d="M102.151 106.039C110.498 103.429 115.511 95.7053 113.348 88.7866C111.186 81.8679 102.666 78.3744 94.3187 80.9838C85.9717 83.5932 80.9586 91.3173 83.1215 98.236C85.2844 105.155 93.8043 108.648 102.151 106.039Z" fill="#263238"/>
<path d="M103.595 125.102C103.16 125.103 102.733 124.984 102.361 124.758C101.989 124.532 101.686 124.208 101.486 123.822C99.378 119.731 96.7055 114.929 91.9139 109.732C91.6405 109.432 91.4485 109.067 91.3562 108.672C91.2639 108.277 91.2745 107.865 91.3868 107.475C93.1685 101.303 95.957 92.8636 95.9886 92.7793C96.0862 92.4847 96.2409 92.2123 96.4438 91.9775C96.6467 91.7428 96.8938 91.5502 97.1711 91.411C97.4484 91.2717 97.7504 91.1885 98.0598 91.1659C98.3693 91.1434 98.6802 91.182 98.9748 91.2796C99.2693 91.3772 99.5417 91.5319 99.7765 91.7348C100.011 91.9377 100.204 92.1848 100.343 92.4621C100.482 92.7394 100.566 93.0414 100.588 93.3509C100.611 93.6603 100.572 93.9712 100.474 94.2658C100.448 94.3448 98.0444 101.614 96.2996 107.523C100.02 111.812 103.175 116.559 105.688 121.65C105.873 122.011 105.962 122.414 105.946 122.82C105.931 123.225 105.812 123.62 105.6 123.967C105.389 124.313 105.092 124.599 104.738 124.798C104.384 124.997 103.985 125.102 103.579 125.102H103.595Z" fill="#E9E9E9"/>
<path d="M98.6295 53.0289C98.1007 53.0292 97.5871 52.8524 97.1705 52.5268C96.754 52.2012 96.4584 51.7455 96.3311 51.2323C96.2037 50.7191 96.2518 50.1781 96.4677 49.6955C96.6837 49.2129 97.055 48.8164 97.5225 48.5694C97.9758 48.327 108.271 42.7026 111.159 29.1871C104.307 26.3196 91.9614 19.8413 89.2625 16.5836C88.9969 16.2686 88.8155 15.8914 88.7354 15.4872C88.4237 13.5408 88.6049 11.5472 89.2625 9.68887L88.0185 7.28519C87.7305 6.72599 87.6765 6.07528 87.8682 5.47622C88.06 4.87716 88.4819 4.37882 89.0411 4.09083C89.6003 3.80284 90.251 3.74878 90.8501 3.94056C91.4492 4.13234 91.9475 4.55424 92.2355 5.11344L94.0224 8.57137C94.2147 8.93327 94.3091 9.33915 94.2961 9.74876C94.2832 10.1584 94.1634 10.5575 93.9486 10.9065C93.4662 11.8699 93.2618 12.9487 93.3583 14.0218C96.3998 16.7681 108.645 23.2675 114.67 25.4973C115.181 25.6865 115.61 26.0466 115.886 26.5163C116.162 26.9861 116.266 27.5367 116.183 28.0749C113.51 45.3487 100.295 52.4649 99.7364 52.7601C99.3949 52.9387 99.0149 53.031 98.6295 53.0289Z" fill="#263238"/>
<path d="M91.0864 16.257C90.8737 16.256 90.6651 16.1978 90.4827 16.0886C90.3002 15.9793 90.1504 15.823 90.0491 15.636C89.9478 15.449 89.8986 15.2381 89.9067 15.0256C89.9149 14.813 89.98 14.6066 90.0954 14.4279C90.1797 14.3014 92.1301 11.3548 95.103 10.5588C95.2529 10.5186 95.4092 10.5084 95.563 10.5287C95.7169 10.5489 95.8652 10.5993 95.9996 10.6769C96.1339 10.7545 96.2517 10.8577 96.3461 10.9808C96.4406 11.1039 96.5098 11.2444 96.55 11.3943C96.5901 11.5442 96.6004 11.7005 96.5801 11.8543C96.5599 12.0081 96.5095 12.1564 96.4319 12.2908C96.3543 12.4252 96.251 12.5429 96.128 12.6374C96.0049 12.7318 95.8644 12.8011 95.7145 12.8412C93.6429 13.4 92.0879 15.6982 92.0774 15.7193C91.9701 15.8845 91.8233 16.0202 91.6502 16.1141C91.4771 16.208 91.2833 16.2571 91.0864 16.257Z" fill="#263238"/>
<path d="M107.533 127H89.194L98.9141 121.486L107.058 121.803L107.533 127Z" fill="#263238"/>
<path d="M69.1303 56.3724C76.0668 55.7582 81.2418 50.199 80.689 43.9556C80.1362 37.7121 74.0649 33.1487 67.1284 33.7629C60.1919 34.3771 55.0169 39.9363 55.5697 46.1797C56.1226 52.4232 62.1939 56.9866 69.1303 56.3724Z" fill="white"/>
<path d="M66.7743 52.2572C68.6138 51.7332 69.3318 48.5938 68.3779 45.2452C67.424 41.8966 65.1595 39.6068 63.32 40.1308C61.4805 40.6548 60.7626 43.7942 61.7165 47.1428C62.6704 50.4914 64.9348 52.7812 66.7743 52.2572Z" fill="#263238"/>
<path d="M53.7819 47.2042C61.7414 46.1816 77.5024 41.6852 80.1011 39.8719C78.0559 33.8838 68.5044 28.7602 60.0072 31.6488C52.3059 34.2475 53.7819 47.2042 53.7819 47.2042Z" fill="#263238"/>
<path d="M55.3264 51.0525C65.2099 49.176 78.0559 46.0238 81.7299 44.0049C81.5033 50.4463 79.6214 56.9774 69.5429 59.186C61.2987 60.9835 55.3264 51.0525 55.3264 51.0525Z" fill="#263238"/>
<path d="M47.1851 57.2444C50.7589 54.8798 51.2301 49.2962 48.2374 44.773C45.2447 40.2498 39.9214 38.4999 36.3476 40.8645C32.7737 43.2291 32.3025 48.8128 35.2952 53.3359C38.2879 57.8591 43.6112 59.609 47.1851 57.2444Z" fill="white"/>
<path d="M41.9427 49.2179C42.5384 52.0433 42.0218 54.3995 40.783 54.4891C39.5443 54.5787 38.0578 52.349 37.4569 49.5237C36.856 46.6983 37.3778 44.3473 38.6113 44.2524C39.8448 44.1575 41.3418 46.3925 41.9427 49.2179Z" fill="#263238"/>
<path d="M32.1435 48.1375C37.4832 48.7648 48.089 48.0637 49.8495 47.0832C48.5475 42.0071 42.2326 36.2087 36.4923 36.9467C31.3159 37.6108 32.1435 48.1375 32.1435 48.1375Z" fill="#263238"/>
<path d="M33.1345 51.4633C39.771 51.7638 48.421 51.5951 50.888 50.6621C50.6613 55.7278 49.333 60.5562 42.5542 60.4771C37.0194 60.4139 33.1345 51.4633 33.1345 51.4633Z" fill="#263238"/>
<path d="M71.3298 28.4598C65.298 28.4927 59.3987 26.6912 54.4144 23.294C53.9146 22.9158 53.5855 22.3546 53.4995 21.7338C53.4135 21.113 53.5777 20.4834 53.9558 19.9836C54.334 19.4838 54.8952 19.1548 55.516 19.0688C56.1368 18.9827 56.7664 19.1469 57.2662 19.525C62.8448 23.1633 69.6132 24.5061 76.1582 23.2729C76.4632 23.2151 76.7765 23.2179 77.0803 23.2812C77.3841 23.3445 77.6726 23.467 77.929 23.6417C78.1855 23.8165 78.4051 24.04 78.5752 24.2996C78.7453 24.5592 78.8626 24.8498 78.9204 25.1547C78.9782 25.4596 78.9753 25.773 78.9121 26.0768C78.8488 26.3806 78.7262 26.669 78.5515 26.9255C78.3768 27.182 78.1532 27.4016 77.8936 27.5716C77.634 27.7417 77.3435 27.859 77.0385 27.9168C75.1567 28.275 73.2454 28.4568 71.3298 28.4598Z" fill="#263238"/>
<path d="M29.0493 24.3852C28.6708 24.3833 28.2983 24.2909 27.9628 24.1156C27.6274 23.9404 27.3387 23.6874 27.121 23.3778C26.9033 23.0683 26.7628 22.7111 26.7112 22.3361C26.6597 21.9612 26.6987 21.5793 26.8248 21.2225C28.0741 17.733 30.1562 15.4716 33.0027 14.4911C38.158 12.7147 43.7138 16.1674 43.951 16.315C44.4688 16.6552 44.8325 17.1849 44.9641 17.7903C45.0957 18.3957 44.9846 19.0286 44.6548 19.553C44.3249 20.0775 43.8026 20.4517 43.1999 20.5953C42.5973 20.7389 41.9623 20.6405 41.4314 20.3211C40.3772 19.6517 37.0194 18.1019 34.5261 18.9664C33.0923 19.4672 32.0275 20.727 31.2737 22.825C31.1081 23.282 30.8057 23.6769 30.4077 23.9561C30.0097 24.2353 29.5354 24.3851 29.0493 24.3852Z" fill="#263238"/>
<path d="M47.6831 64.2777C47.6168 64.2775 47.551 64.2669 47.488 64.2461C47.3091 64.1957 47.1575 64.0764 47.0666 63.9142C46.9756 63.7521 46.9528 63.5605 47.0031 63.3816C47.2126 62.8113 47.5328 62.2882 47.9453 61.8422C48.3579 61.3962 48.8545 61.0362 49.4067 60.7829C52.1162 59.386 56.2593 59.6759 61.694 61.6421C61.7819 61.6738 61.8626 61.7227 61.9315 61.7859C62.0004 61.849 62.056 61.9252 62.0952 62.01C62.1345 62.0948 62.1565 62.1866 62.16 62.28C62.1635 62.3733 62.1484 62.4665 62.1157 62.554C62.0845 62.6417 62.0362 62.7223 61.9735 62.7912C61.9109 62.86 61.8351 62.9157 61.7507 62.9549C61.6663 62.9942 61.575 63.0162 61.482 63.0198C61.389 63.0234 61.2962 63.0084 61.209 62.9757C54.9732 60.7196 51.7208 61.2046 50.1394 62.0164C49.3498 62.3513 48.722 62.9811 48.3894 63.7717C48.3441 63.9222 48.2502 64.0535 48.1224 64.145C47.9946 64.2366 47.8401 64.2832 47.6831 64.2777Z" fill="#263238"/>
<path d="M25.3594 61.6792C17.1114 62.4121 9.08954 64.7678 1.75487 68.6109C5.82425 67.8413 20.3887 85.8636 24.1312 99.7585C31.0418 97.202 39.0962 95.4572 47.6831 94.092C42.4804 79.77 32.9658 63.5399 25.3594 61.6792Z" fill="#E9E9E9"/>
<path opacity="0.6" d="M25.3594 61.6792C17.1114 62.4121 9.08954 64.7678 1.75487 68.6109C5.82425 67.8413 20.3887 85.8636 24.1312 99.7585C31.0418 97.202 39.0962 95.4572 47.6831 94.092C42.4804 79.77 32.9658 63.5399 25.3594 61.6792Z" fill="#D2D2D2"/>
<path d="M25.3594 61.6789C16.3562 60.6616 1.73906 68.1994 1.73906 68.1994C-0.84911 69.8493 -0.148041 72.9435 1.26465 74.256C2.61935 72.311 17.7267 67.2506 23.4038 66.5706C20.5837 63.9561 23.2088 62.0374 25.3594 61.6789Z" fill="#E9E9E9"/>
<path opacity="0.2" d="M25.3594 61.6789C16.3562 60.6616 1.73906 68.1994 1.73906 68.1994C-0.84911 69.8493 -0.148041 72.9435 1.26465 74.256C2.61935 72.311 17.7267 67.2506 23.4038 66.5706C20.5837 63.9561 23.2088 62.0374 25.3594 61.6789Z" fill="#575757"/>
<path d="M12.0654 83.6496C11.673 83.6512 11.2862 83.5557 10.9395 83.3718C10.5928 83.1879 10.2969 82.9212 10.0781 82.5954C8.365 79.9598 9.43506 75.9589 9.66699 75.1788C9.86455 74.6001 10.2784 74.1204 10.8218 73.84C11.3652 73.5597 11.996 73.5006 12.5821 73.675C13.1681 73.8495 13.6639 74.244 13.9656 74.7758C14.2672 75.3077 14.3513 75.9357 14.2003 76.5282C13.8155 77.8513 13.7364 79.5433 14.0421 80.0072C14.3843 80.533 14.5038 81.1731 14.3743 81.7868C14.2448 82.4006 13.877 82.9379 13.3516 83.2806C12.9687 83.5279 12.5212 83.6563 12.0654 83.6496Z" fill="#263238"/>
</svg>
