<svg width="23" height="19" viewBox="0 0 23 19" fill="none" xmlns="http://www.w3.org/2000/svg">
<path d="M11.4999 14.3265C8.95753 14.3265 6.89952 12.3587 6.71014 9.86491L3.1941 7.1476C2.73189 7.72746 2.30654 8.34051 1.96332 9.01087C1.88664 9.16254 1.84669 9.33011 1.84669 9.50006C1.84669 9.67002 1.88664 9.83759 1.96332 9.98926C3.781 13.5358 7.3795 15.9354 11.4999 15.9354C12.4018 15.9354 13.272 15.8013 14.1106 15.5848L12.3713 14.239C12.0841 14.2945 11.7924 14.3238 11.4999 14.3265ZM22.0185 16.2739L18.3131 13.4101C19.4387 12.4615 20.3644 11.2986 21.0364 9.98892C21.1131 9.83725 21.153 9.66968 21.153 9.49973C21.153 9.32978 21.1131 9.1622 21.0364 9.01053C19.2187 5.46399 15.6202 3.06443 11.4999 3.06443C9.77419 3.06652 8.07654 3.50096 6.56199 4.32806L2.29783 1.03223C2.24222 0.988964 2.17864 0.957076 2.1107 0.938391C2.04277 0.919706 1.97182 0.914591 1.9019 0.923338C1.83199 0.932085 1.76449 0.954522 1.70325 0.989368C1.64201 1.02421 1.58824 1.07078 1.54501 1.12642L0.887053 1.97342C0.799772 2.0857 0.760661 2.22805 0.778324 2.36916C0.795987 2.51028 0.868976 2.6386 0.981239 2.7259L20.7019 17.9676C20.7575 18.0108 20.8211 18.0427 20.889 18.0614C20.957 18.0801 21.0279 18.0852 21.0978 18.0765C21.1677 18.0677 21.2353 18.0453 21.2965 18.0104C21.3577 17.9756 21.4115 17.929 21.4547 17.8734L22.113 17.0264C22.2003 16.9141 22.2393 16.7717 22.2216 16.6306C22.2039 16.4894 22.1308 16.3611 22.0185 16.2739ZM15.8606 11.5143L14.5433 10.4961C14.6542 10.1754 14.7131 9.83913 14.7176 9.4999C14.7241 9.00325 14.6141 8.51198 14.3964 8.06557C14.1786 7.61916 13.8592 7.23004 13.4637 6.92947C13.0683 6.6289 12.6079 6.42526 12.1195 6.3349C11.6311 6.24454 11.1283 6.26999 10.6515 6.4092C10.8536 6.68307 10.963 7.01436 10.9636 7.35474C10.9586 7.46801 10.9413 7.5804 10.912 7.68992L8.4447 5.78308C9.30175 5.06687 10.383 4.67412 11.4999 4.6733C12.1338 4.67295 12.7616 4.79755 13.3473 5.03998C13.9331 5.28242 14.4653 5.63793 14.9136 6.08619C15.3618 6.53445 15.7173 7.06667 15.9598 7.65242C16.2022 8.23817 16.3268 8.86596 16.3265 9.4999C16.3265 10.2249 16.1492 10.9006 15.8606 11.5147V11.5143Z" fill="black" fill-opacity="0.77"/>
</svg>
