<svg width="51" height="47" viewBox="0 0 51 47" fill="none" xmlns="http://www.w3.org/2000/svg">
<path d="M32.8249 9.46875C32.8249 9.46875 32.2819 16.2037 31.9669 19.0407C31.8169 20.3957 30.9799 21.1898 29.6089 21.2148C26.9999 21.2618 24.3879 21.2648 21.7799 21.2098C20.4609 21.1828 19.6379 20.3788 19.4909 19.0478C19.1739 16.1858 18.6339 9.46875 18.6339 9.46875" stroke="white" stroke-width="1.5" stroke-linecap="round" stroke-linejoin="round"/>
<path d="M34.2082 6.24023H17.2502" stroke="white" stroke-width="1.5" stroke-linecap="round" stroke-linejoin="round"/>
<path d="M30.9406 6.23998C30.1556 6.23998 29.4796 5.68498 29.3256 4.91598L29.0826 3.69998C28.9326 3.13898 28.4246 2.75098 27.8456 2.75098H23.6126C23.0336 2.75098 22.5256 3.13898 22.3756 3.69998L22.1326 4.91598C21.9786 5.68498 21.3026 6.23998 20.5176 6.23998" stroke="white" stroke-width="1.5" stroke-linecap="round" stroke-linejoin="round"/>
<path d="M5.5 44H1.90909V32.3636H5.65909C6.78788 32.3636 7.75379 32.5966 8.55682 33.0625C9.35985 33.5246 9.97538 34.1894 10.4034 35.0568C10.8314 35.9205 11.0455 36.9545 11.0455 38.1591C11.0455 39.3712 10.8295 40.4148 10.3977 41.2898C9.96591 42.161 9.33712 42.8314 8.51136 43.3011C7.68561 43.767 6.68182 44 5.5 44ZM3.31818 42.75H5.40909C6.37121 42.75 7.16856 42.5644 7.80114 42.1932C8.43371 41.822 8.9053 41.2936 9.21591 40.608C9.52652 39.9223 9.68182 39.1061 9.68182 38.1591C9.68182 37.2197 9.52841 36.411 9.22159 35.733C8.91477 35.0511 8.45644 34.5284 7.84659 34.1648C7.23674 33.7973 6.47727 33.6136 5.56818 33.6136H3.31818V42.75ZM16.357 44.1818C15.5161 44.1818 14.7907 43.9962 14.1809 43.625C13.5748 43.25 13.107 42.7273 12.7774 42.0568C12.4517 41.3826 12.2888 40.5985 12.2888 39.7045C12.2888 38.8106 12.4517 38.0227 12.7774 37.3409C13.107 36.6553 13.5653 36.1212 14.1524 35.7386C14.7434 35.3523 15.4327 35.1591 16.2206 35.1591C16.6752 35.1591 17.124 35.2348 17.5672 35.3864C18.0104 35.5379 18.4138 35.7841 18.7774 36.125C19.1411 36.4621 19.4309 36.9091 19.6468 37.4659C19.8627 38.0227 19.9706 38.7083 19.9706 39.5227V40.0909H13.2434V38.9318H18.607C18.607 38.4394 18.5085 38 18.3115 37.6136C18.1184 37.2273 17.8418 36.9223 17.482 36.6989C17.1259 36.4754 16.7055 36.3636 16.2206 36.3636C15.6865 36.3636 15.2244 36.4962 14.8343 36.7614C14.4479 37.0227 14.1506 37.3636 13.9422 37.7841C13.7339 38.2045 13.6297 38.6553 13.6297 39.1364V39.9091C13.6297 40.5682 13.7434 41.1269 13.9706 41.5852C14.2017 42.0398 14.5218 42.3864 14.9309 42.625C15.3399 42.8598 15.8153 42.9773 16.357 42.9773C16.7093 42.9773 17.0274 42.928 17.3115 42.8295C17.5994 42.7273 17.8475 42.5758 18.0559 42.375C18.2642 42.1705 18.4252 41.9167 18.5388 41.6136L19.8343 41.9773C19.6979 42.4167 19.4687 42.803 19.1468 43.1364C18.8248 43.4659 18.4271 43.7235 17.9536 43.9091C17.4801 44.0909 16.9479 44.1818 16.357 44.1818ZM22.8219 32.3636V44H21.481V32.3636H22.8219ZM28.4076 44.1818C27.5667 44.1818 26.8413 43.9962 26.2315 43.625C25.6254 43.25 25.1576 42.7273 24.8281 42.0568C24.5023 41.3826 24.3394 40.5985 24.3394 39.7045C24.3394 38.8106 24.5023 38.0227 24.8281 37.3409C25.1576 36.6553 25.616 36.1212 26.2031 35.7386C26.794 35.3523 27.4834 35.1591 28.2713 35.1591C28.7258 35.1591 29.1747 35.2348 29.6178 35.3864C30.061 35.5379 30.4644 35.7841 30.8281 36.125C31.1917 36.4621 31.4815 36.9091 31.6974 37.4659C31.9133 38.0227 32.0213 38.7083 32.0213 39.5227V40.0909H25.294V38.9318H30.6576C30.6576 38.4394 30.5591 38 30.3622 37.6136C30.169 37.2273 29.8925 36.9223 29.5326 36.6989C29.1766 36.4754 28.7561 36.3636 28.2713 36.3636C27.7372 36.3636 27.275 36.4962 26.8849 36.7614C26.4985 37.0227 26.2012 37.3636 25.9928 37.7841C25.7845 38.2045 25.6803 38.6553 25.6803 39.1364V39.9091C25.6803 40.5682 25.794 41.1269 26.0213 41.5852C26.2523 42.0398 26.5724 42.3864 26.9815 42.625C27.3906 42.8598 27.866 42.9773 28.4076 42.9773C28.7599 42.9773 29.0781 42.928 29.3622 42.8295C29.65 42.7273 29.8982 42.5758 30.1065 42.375C30.3148 42.1705 30.4758 41.9167 30.5894 41.6136L31.8849 41.9773C31.7485 42.4167 31.5194 42.803 31.1974 43.1364C30.8754 43.4659 30.4777 43.7235 30.0042 43.9091C29.5307 44.0909 28.9985 44.1818 28.4076 44.1818ZM37.3271 35.2727V36.4091H32.8044V35.2727H37.3271ZM34.1226 33.1818H35.4635V41.5C35.4635 41.8788 35.5184 42.1629 35.6282 42.3523C35.7419 42.5379 35.8858 42.6629 36.0601 42.7273C36.2381 42.7879 36.4256 42.8182 36.6226 42.8182C36.7703 42.8182 36.8915 42.8106 36.9862 42.7955C37.0809 42.7765 37.1567 42.7614 37.2135 42.75L37.4862 43.9545C37.3953 43.9886 37.2684 44.0227 37.1055 44.0568C36.9426 44.0947 36.7362 44.1136 36.4862 44.1136C36.1074 44.1136 35.7362 44.0322 35.3726 43.8693C35.0127 43.7064 34.7135 43.4583 34.4748 43.125C34.24 42.7917 34.1226 42.3712 34.1226 41.8636V33.1818ZM42.3801 44.1818C41.5392 44.1818 40.8138 43.9962 40.204 43.625C39.5979 43.25 39.1301 42.7273 38.8006 42.0568C38.4748 41.3826 38.3119 40.5985 38.3119 39.7045C38.3119 38.8106 38.4748 38.0227 38.8006 37.3409C39.1301 36.6553 39.5885 36.1212 40.1756 35.7386C40.7665 35.3523 41.4559 35.1591 42.2438 35.1591C42.6983 35.1591 43.1472 35.2348 43.5904 35.3864C44.0335 35.5379 44.4369 35.7841 44.8006 36.125C45.1642 36.4621 45.454 36.9091 45.6699 37.4659C45.8858 38.0227 45.9938 38.7083 45.9938 39.5227V40.0909H39.2665V38.9318H44.6301C44.6301 38.4394 44.5316 38 44.3347 37.6136C44.1415 37.2273 43.865 36.9223 43.5051 36.6989C43.1491 36.4754 42.7286 36.3636 42.2438 36.3636C41.7097 36.3636 41.2476 36.4962 40.8574 36.7614C40.471 37.0227 40.1737 37.3636 39.9654 37.7841C39.757 38.2045 39.6529 38.6553 39.6529 39.1364V39.9091C39.6529 40.5682 39.7665 41.1269 39.9938 41.5852C40.2248 42.0398 40.5449 42.3864 40.954 42.625C41.3631 42.8598 41.8385 42.9773 42.3801 42.9773C42.7324 42.9773 43.0506 42.928 43.3347 42.8295C43.6226 42.7273 43.8707 42.5758 44.079 42.375C44.2873 42.1705 44.4483 41.9167 44.5619 41.6136L45.8574 41.9773C45.721 42.4167 45.4919 42.803 45.1699 43.1364C44.8479 43.4659 44.4502 43.7235 43.9767 43.9091C43.5032 44.0909 42.971 44.1818 42.3801 44.1818Z" fill="white"/>
</svg>
