<svg width="23" height="21" viewBox="0 0 23 21" fill="none" xmlns="http://www.w3.org/2000/svg">
<path d="M5.20833 9.45899H13.5417V11.5423H5.20833V14.6673L0 10.5007L5.20833 6.33399V9.45899ZM4.16667 16.7507H6.9875C8.1903 17.8114 9.67363 18.5026 11.2595 18.7412C12.8454 18.9798 14.4664 18.7558 15.9281 18.096C17.3898 17.4361 18.6301 16.3685 19.5001 15.0213C20.3701 13.674 20.8328 12.1044 20.8328 10.5007C20.8328 8.89692 20.3701 7.32726 19.5001 5.98001C18.6301 4.63277 17.3898 3.56517 15.9281 2.90534C14.4664 2.2455 12.8454 2.02146 11.2595 2.26009C9.67363 2.49872 8.1903 3.18989 6.9875 4.25065H4.16667C5.13639 2.95634 6.39444 1.90587 7.84098 1.1826C9.28751 0.459332 10.8827 0.0831761 12.5 0.0839857C18.2531 0.0839857 22.9167 4.74753 22.9167 10.5007C22.9167 16.2538 18.2531 20.9173 12.5 20.9173C10.8827 20.9181 9.28751 20.542 7.84098 19.8187C6.39444 19.0954 5.13639 18.045 4.16667 16.7507Z" fill="black"/>
</svg>
