<svg width="21" height="21" viewBox="0 0 21 21" fill="none" xmlns="http://www.w3.org/2000/svg">
<path fill-rule="evenodd" clip-rule="evenodd" d="M10.3913 20.5172C15.9238 20.5172 20.4087 16.0323 20.4087 10.4998C20.4087 4.96736 15.9238 0.482422 10.3913 0.482422C4.85887 0.482422 0.373932 4.96736 0.373932 10.4998C0.373932 16.0323 4.85887 20.5172 10.3913 20.5172ZM11.6435 6.74329C11.6435 6.05173 11.0829 5.49112 10.3913 5.49112C9.69977 5.49112 9.13915 6.05173 9.13915 6.74329V9.24764H6.6348C5.94324 9.24764 5.38263 9.80826 5.38263 10.4998C5.38263 11.1914 5.94324 11.752 6.6348 11.752H9.13915V14.2563C9.13915 14.9479 9.69977 15.5085 10.3913 15.5085C11.0829 15.5085 11.6435 14.9479 11.6435 14.2563V11.752H14.1478C14.8394 11.752 15.4 11.1914 15.4 10.4998C15.4 9.80826 14.8394 9.24764 14.1478 9.24764H11.6435V6.74329Z" fill="white"/>
</svg>
