<svg width="21" height="21" viewBox="0 0 21 21" fill="none" xmlns="http://www.w3.org/2000/svg">
<path fill-rule="evenodd" clip-rule="evenodd" d="M10.5 20.5C16.0228 20.5 20.5 16.0228 20.5 10.5C20.5 4.97715 16.0228 0.5 10.5 0.5C4.97715 0.5 0.5 4.97715 0.5 10.5C0.5 16.0228 4.97715 20.5 10.5 20.5ZM8.88388 7.11612C8.39573 6.62796 7.60427 6.62796 7.11612 7.11612C6.62796 7.60427 6.62796 8.39573 7.11612 8.88388L8.73223 10.5L7.11612 12.1161C6.62796 12.6043 6.62796 13.3957 7.11612 13.8839C7.60427 14.372 8.39573 14.372 8.88388 13.8839L10.5 12.2678L12.1161 13.8839C12.6043 14.372 13.3957 14.372 13.8839 13.8839C14.372 13.3957 14.372 12.6043 13.8839 12.1161L12.2678 10.5L13.8839 8.88388C14.372 8.39573 14.372 7.60427 13.8839 7.11612C13.3957 6.62796 12.6043 6.62796 12.1161 7.11612L10.5 8.73223L8.88388 7.11612Z" fill="#989898"/>
</svg>
