<svg width="47" height="48" viewBox="0 0 47 48" fill="none" xmlns="http://www.w3.org/2000/svg">
<rect y="0.884766" width="47" height="46.2295" rx="23.1148" fill="#DE5753"/>
<path d="M30.8249 21.4688C30.8249 21.4688 30.2819 28.2037 29.9669 31.0407C29.8169 32.3957 28.9799 33.1898 27.6089 33.2148C24.9999 33.2618 22.3879 33.2648 19.7799 33.2098C18.4609 33.1828 17.6379 32.3788 17.4909 31.0478C17.1739 28.1858 16.6339 21.4688 16.6339 21.4688" stroke="white" stroke-width="1.5" stroke-linecap="round" stroke-linejoin="round"/>
<path d="M32.2082 18.2402H15.2502" stroke="white" stroke-width="1.5" stroke-linecap="round" stroke-linejoin="round"/>
<path d="M28.9407 18.24C28.1557 18.24 27.4797 17.685 27.3257 16.916L27.0827 15.7C26.9327 15.139 26.4247 14.751 25.8457 14.751H21.6127C21.0337 14.751 20.5257 15.139 20.3757 15.7L20.1327 16.916C19.9787 17.685 19.3027 18.24 18.5177 18.24" stroke="white" stroke-width="1.5" stroke-linecap="round" stroke-linejoin="round"/>
</svg>
