<svg width="21" height="23" viewBox="0 0 21 23" fill="none" xmlns="http://www.w3.org/2000/svg">
<path d="M10.7083 20.1673H10.4167C7.65556 20.1673 5.3125 19.2048 3.3875 17.2798C1.4625 15.3548 0.5 13.0118 0.5 10.2507C0.5 7.48954 1.4625 5.14648 3.3875 3.22148C5.3125 1.29648 7.65556 0.333984 10.4167 0.333984C11.7972 0.333984 13.0856 0.591429 14.2818 1.10632C15.4781 1.62121 16.5281 2.33093 17.4318 3.23548C18.3356 4.14004 19.0449 5.19004 19.5598 6.38548C20.0747 7.58093 20.3326 8.86932 20.3333 10.2507C20.3333 12.8562 19.5991 15.277 18.1307 17.5132C16.6622 19.7493 14.8103 21.4993 12.575 22.7632C12.3806 22.8604 12.1861 22.914 11.9917 22.9242C11.7972 22.9343 11.6222 22.8903 11.4667 22.7923C11.3111 22.6943 11.175 22.5679 11.0583 22.4131C10.9417 22.2584 10.8736 22.0737 10.8542 21.859L10.7083 20.1673ZM10.3875 16.6382C10.7181 16.6382 11 16.5215 11.2333 16.2882C11.4667 16.0548 11.5833 15.7729 11.5833 15.4423C11.5833 15.1118 11.4667 14.8298 11.2333 14.5965C11 14.3632 10.7181 14.2465 10.3875 14.2465C10.0569 14.2465 9.775 14.3632 9.54167 14.5965C9.30833 14.8298 9.19167 15.1118 9.19167 15.4423C9.19167 15.7729 9.30833 16.0548 9.54167 16.2882C9.775 16.5215 10.0569 16.6382 10.3875 16.6382ZM7.85 7.77148C8.06389 7.86871 8.27778 7.87376 8.49167 7.78665C8.70556 7.69954 8.88056 7.55837 9.01667 7.36315C9.19167 7.12982 9.39583 6.94976 9.62917 6.82298C9.8625 6.69621 10.125 6.63321 10.4167 6.63398C10.8833 6.63398 11.2625 6.76504 11.5542 7.02715C11.8458 7.28926 11.9917 7.62487 11.9917 8.03398C11.9917 8.28676 11.9189 8.53954 11.7735 8.79232C11.6281 9.0451 11.3702 9.35621 11 9.72565C10.5139 10.1534 10.1542 10.5571 9.92083 10.9367C9.6875 11.3162 9.57083 11.7 9.57083 12.0882C9.57083 12.3215 9.65367 12.521 9.81933 12.6867C9.985 12.8523 10.1841 12.9348 10.4167 12.934C10.6492 12.9332 10.8437 12.8457 11 12.6715C11.1563 12.4973 11.273 12.2931 11.35 12.059C11.4472 11.7284 11.6222 11.427 11.875 11.1548C12.1278 10.8826 12.3611 10.6395 12.575 10.4257C12.9833 10.0173 13.2898 9.60898 13.4943 9.20065C13.6989 8.79232 13.8008 8.38398 13.8 7.97565C13.8 7.08121 13.4936 6.36176 12.8807 5.81732C12.2678 5.27287 11.4464 5.00065 10.4167 5.00065C9.79444 5.00065 9.22083 5.15154 8.69583 5.45332C8.17083 5.7551 7.74306 6.1681 7.4125 6.69232C7.29583 6.90621 7.28106 7.11543 7.36817 7.31998C7.45528 7.52454 7.61589 7.67504 7.85 7.77148Z" fill="black"/>
</svg>
