<svg width="21" height="27" viewBox="0 0 21 27" fill="none" xmlns="http://www.w3.org/2000/svg">
<path d="M17.497 25.9167C16.1401 27.3416 14.6586 27.1166 13.2325 26.4417C11.7233 25.7518 10.3388 25.7218 8.74649 26.4417C6.75269 27.3715 5.70042 27.1016 4.50968 25.9167C-2.24706 18.3727 -1.25017 6.88413 6.4204 6.46418C8.28958 6.56917 9.59108 7.57404 10.6849 7.66403C12.3187 7.30408 13.8833 6.26921 15.6278 6.40419C17.7186 6.58417 19.297 7.48406 20.3354 9.10385C16.0155 11.9085 17.0401 18.0727 21 19.7975C20.2108 22.0472 19.1862 24.2819 17.4832 25.9317L17.497 25.9167ZM10.5464 6.3742C10.3388 3.02962 12.8448 0.269966 15.7248 0C16.1263 3.86951 12.4848 6.74915 10.5464 6.3742Z" fill="white"/>
</svg>
