<svg width="21" height="25" viewBox="0 0 21 25" fill="none" xmlns="http://www.w3.org/2000/svg">
<path d="M12.0133 0.663086C12.3243 0.663086 12.564 0.916741 12.5641 1.21875V5.10938C12.5641 7.3205 14.3701 9.13322 16.5592 9.14551C17.4685 9.14551 18.1866 9.15723 18.737 9.15723C19.1078 9.15723 19.7177 9.14551 20.2321 9.14551C20.5312 9.14551 20.7712 9.38737 20.7712 9.68945V19.4043C20.7712 22.401 18.3661 24.8301 15.3991 24.8301H5.87565C2.76532 24.8299 0.229255 22.2801 0.229164 19.1387V6.1123C0.22936 3.11584 2.64589 0.663151 5.62467 0.663086H12.0133ZM6.78483 16.251C6.29459 16.2512 5.88846 16.6494 5.88834 17.1445C5.88834 17.6398 6.29451 18.0505 6.78483 18.0508H13.2936C13.7841 18.0507 14.1911 17.6399 14.1911 17.1445C14.191 16.6492 13.784 16.251 13.2936 16.251H6.78483ZM6.78483 10.209C6.29451 10.2092 5.88834 10.62 5.88834 11.1152C5.88838 11.6105 6.29454 12.0095 6.78483 12.0098H10.8288C11.3193 12.0098 11.7262 11.6106 11.7262 11.1152C11.7262 10.6198 11.3193 10.209 10.8288 10.209H6.78483ZM14.3073 1.75781C14.3073 1.23704 14.933 0.978706 15.2907 1.35449C16.5839 2.71261 18.8438 5.08636 20.1071 6.41309C20.4564 6.77916 20.2005 7.3873 19.6969 7.38867C18.7136 7.3923 17.5542 7.38834 16.7204 7.37988C15.3973 7.37988 14.3075 6.27962 14.3073 4.94336V1.75781Z" fill="#AAAAAA" fill-opacity="0.56"/>
</svg>
