<svg width="136" height="138" viewBox="0 0 136 138" fill="none" xmlns="http://www.w3.org/2000/svg">
<path d="M42.2423 2.09577C42.695 1.82451 43.182 1.61504 43.6903 1.47295L43.9862 0.0435967L46.4027 0L46.7515 1.42001C47.2637 1.54632 47.7569 1.74005 48.2182 1.99612L49.4389 1.1958L51.1797 2.8774L50.4229 4.12302C50.6944 4.57458 50.9038 5.06058 51.0458 5.56795L52.4751 5.86378L52.5187 8.2803L51.0987 8.62596C50.9729 9.13837 50.7792 9.63165 50.5226 10.0927L51.3229 11.3165L49.6413 13.0542L48.3957 12.2974C47.9441 12.5688 47.4581 12.7783 46.9508 12.9203L46.6394 14.3496L44.2228 14.3932L43.8741 12.9732C43.3628 12.8469 42.8706 12.6531 42.4105 12.3971L41.1866 13.1974L39.4396 11.5189L40.1964 10.2733C39.9251 9.82056 39.7156 9.33356 39.5735 8.82526L38.1442 8.51385L38.1006 6.09734L39.5206 5.74856C39.6469 5.23633 39.8406 4.74311 40.0967 4.28184L39.2964 3.05801L40.9967 1.33905L42.2423 2.09577ZM43.5315 5.31571C43.175 5.68462 42.9359 6.15095 42.8444 6.65575C42.7529 7.16055 42.8132 7.68115 43.0175 8.15171C43.2219 8.62227 43.5612 9.02166 43.9926 9.29939C44.4239 9.57711 44.9279 9.7207 45.4409 9.71199C45.9538 9.70328 46.4527 9.54267 46.8743 9.25046C47.296 8.95825 47.6216 8.54757 47.8098 8.07034C47.9981 7.59312 48.0407 7.07078 47.9321 6.56937C47.8235 6.06797 47.5687 5.61002 47.1999 5.25343C46.9545 5.01511 46.6645 4.82762 46.3464 4.70171C46.0283 4.57581 45.6886 4.51397 45.3465 4.51976C45.0045 4.52555 44.667 4.59884 44.3534 4.73543C44.0398 4.87203 43.7562 5.06923 43.5191 5.31571H43.5315Z" fill="#E0E0E0"/>
<path d="M42.8029 82.2954C43.0637 82.1382 43.3444 82.0167 43.6375 81.9341L43.8088 81.1089L45.2039 81.084L45.4032 81.903C45.699 81.9745 45.9839 82.0855 46.2502 82.2331L46.954 81.7722L47.9567 82.7407L47.5363 83.4538C47.6935 83.7146 47.815 83.9953 47.8975 84.2884L48.7227 84.4596L48.7477 85.8547L47.9287 86.054C47.8571 86.3499 47.7461 86.6348 47.5986 86.9011L48.0594 87.6048L47.091 88.6076L46.3716 88.1716C46.1103 88.3285 45.8298 88.451 45.5371 88.5359L45.3564 89.3705L43.9613 89.3954L43.762 88.5764C43.4662 88.5049 43.1813 88.3939 42.915 88.2463L42.2112 88.7072L41.2085 87.7387L41.6445 87.0194C41.4876 86.7581 41.3651 86.4775 41.2801 86.1848L40.458 86.0135L40.4331 84.6184L41.2521 84.4191C41.3236 84.1233 41.4346 83.8384 41.5822 83.5721L41.1213 82.8683L42.0898 81.8656L42.8091 82.3016L42.8029 82.2954ZM43.5472 84.1638C43.3409 84.3767 43.2025 84.6461 43.1495 84.9378C43.0964 85.2295 43.1311 85.5303 43.2491 85.8023C43.3672 86.0742 43.5633 86.305 43.8126 86.4654C44.0619 86.6259 44.3532 86.7087 44.6496 86.7035C44.946 86.6982 45.2342 86.6052 45.4777 86.436C45.7212 86.2669 45.909 86.0293 46.0174 85.7534C46.1257 85.4774 46.1498 85.1755 46.0864 84.8859C46.0231 84.5963 45.8753 84.332 45.6616 84.1264C45.5212 83.9892 45.3551 83.8809 45.1728 83.8079C44.9905 83.7348 44.7956 83.6984 44.5992 83.7008C44.4029 83.7031 44.2089 83.7441 44.0284 83.8214C43.8479 83.8987 43.6843 84.0108 43.5472 84.1513V84.1638Z" fill="#E0E0E0"/>
<path d="M12.4347 9.78445C12.6129 9.6767 12.8045 9.59294 13.0046 9.53533L13.123 8.97168H14.0727L14.216 9.51353C14.4178 9.5648 14.6124 9.64117 14.7952 9.74085L15.2748 9.42945L15.9599 10.0896L15.6485 10.5817C15.7562 10.7598 15.84 10.9514 15.8976 11.1515L16.4612 11.2699V12.2041L15.9007 12.3411C15.8519 12.5432 15.7765 12.738 15.6765 12.9203L15.9879 13.3999L15.3277 14.085L14.8357 13.7736C14.6575 13.8813 14.4659 13.9651 14.2658 14.0227L14.1475 14.5863H13.2133L13.0762 14.0258C12.8741 13.977 12.6793 13.9017 12.497 13.8016L12.0175 14.113L11.3324 13.4497L11.6438 12.9608C11.536 12.7826 11.4523 12.591 11.3946 12.3909L10.831 12.2726L10.8154 11.3384L11.3728 11.2014C11.4241 10.9995 11.5005 10.8049 11.6002 10.6221L11.2888 10.1426L11.9489 9.45747L12.441 9.76888L12.4347 9.78445ZM12.9423 11.0519C12.8021 11.1972 12.708 11.3808 12.6721 11.5796C12.6362 11.7784 12.66 11.9833 12.7405 12.1685C12.8211 12.3538 12.9547 12.5109 13.1246 12.6202C13.2945 12.7295 13.4929 12.786 13.6949 12.7825C13.8968 12.779 14.0932 12.7157 14.2592 12.6007C14.4252 12.4856 14.5533 12.3239 14.6274 12.136C14.7015 11.9481 14.7183 11.7425 14.6755 11.5451C14.6328 11.3477 14.5325 11.1674 14.3873 11.027C14.2908 10.9337 14.1769 10.8603 14.052 10.8111C13.9272 10.7618 13.7938 10.7377 13.6596 10.74C13.5254 10.7423 13.393 10.771 13.2699 10.8245C13.1469 10.8781 13.0355 10.9553 12.9423 11.0519Z" fill="#E0E0E0"/>
<path d="M58.9218 7.78235C59.2731 7.57004 59.6511 7.40562 60.046 7.29344L60.2764 6.18172L62.1448 6.14746L62.4158 7.25295C62.8151 7.35058 63.1995 7.5014 63.5586 7.70138L64.4928 7.07857L65.8724 8.40516L65.2869 9.36429C65.5 9.71631 65.6644 10.0955 65.7758 10.4916L66.8907 10.722L66.9218 12.5905L65.8194 12.8614C65.7191 13.2627 65.5662 13.6491 65.3648 14.0105L65.9876 14.9634L64.6828 16.3149L63.7112 15.7263C63.3596 15.938 62.9816 16.1024 62.587 16.2152L62.3535 17.327L60.485 17.3612L60.2141 16.2557C59.8106 16.1604 59.4219 16.0106 59.0588 15.8104L58.1246 16.4332L56.77 15.1284L57.3585 14.1568C57.1466 13.8042 56.9822 13.4252 56.8696 13.0295L55.7579 12.7991L55.7236 10.9307L56.8291 10.6597C56.9268 10.2614 57.0776 9.87806 57.2776 9.51999L56.6547 8.56709L57.9595 7.21559L58.9218 7.78235ZM59.9245 10.2736C59.6475 10.561 59.4619 10.924 59.3912 11.3169C59.3205 11.7097 59.3679 12.1147 59.5275 12.4806C59.687 12.8465 59.9514 13.1568 60.2874 13.3724C60.6233 13.588 61.0156 13.6991 61.4147 13.6917C61.8138 13.6843 62.2017 13.5587 62.5294 13.3308C62.8571 13.1029 63.1098 12.783 63.2557 12.4114C63.4015 12.0398 63.4338 11.6334 63.3486 11.2434C63.2634 10.8535 63.0645 10.4975 62.777 10.2207C62.5848 10.0381 62.3584 9.8953 62.1109 9.80039C61.8634 9.70548 61.5996 9.66035 61.3346 9.66759C61.0696 9.67482 60.8086 9.73427 60.5667 9.84254C60.3247 9.9508 60.1065 10.1058 59.9245 10.2985V10.2736Z" fill="#EBEBEB"/>
<path d="M108.638 54.213C109.088 53.9416 109.573 53.7321 110.079 53.5901L110.391 52.1608L112.804 52.1172L113.153 53.5372C113.666 53.6621 114.159 53.8559 114.62 54.1133L115.837 53.313L117.575 54.9915L116.821 56.2371C117.091 56.6895 117.3 57.1753 117.444 57.682L118.874 57.9934L118.917 60.4068L117.497 60.7556C117.372 61.2673 117.178 61.7597 116.921 62.2192L117.721 63.4399L116.046 65.1589L114.8 64.4022C114.349 64.6732 113.863 64.8826 113.355 65.025L113.044 66.4543L110.631 66.4948L110.282 65.081C109.771 64.9547 109.278 64.761 108.818 64.5049L107.598 65.3053L105.86 63.6268L106.617 62.3811C106.345 61.9307 106.136 61.4457 105.994 60.9393L104.564 60.6279L104.524 58.2301L105.941 57.8813C106.067 57.3691 106.261 56.8759 106.517 56.4146L105.717 55.197L107.395 53.4593L108.641 54.2161L108.638 54.213ZM109.924 57.4298C109.568 57.7986 109.33 58.2646 109.239 58.7688C109.148 59.273 109.209 59.7929 109.414 60.2626C109.618 60.7323 109.957 61.1308 110.388 61.4077C110.82 61.6847 111.323 61.8276 111.835 61.8185C112.347 61.8093 112.846 61.6485 113.266 61.3564C113.687 61.0642 114.012 60.6539 114.2 60.1772C114.387 59.7005 114.43 59.1788 114.321 58.6782C114.212 58.1775 113.957 57.7203 113.589 57.3644C113.344 57.1275 113.055 56.9412 112.738 56.8163C112.422 56.6913 112.083 56.6301 111.743 56.6362C111.402 56.6423 111.066 56.7155 110.754 56.8517C110.442 56.9879 110.16 57.1843 109.924 57.4298Z" fill="#E0E0E0"/>
<path d="M125.7 7.22826C125.702 6.22241 125.471 5.2297 125.027 4.32732C124.583 3.42495 123.936 2.63724 123.138 2.02545C122.339 1.41367 121.41 0.994303 120.424 0.79997C119.437 0.605638 118.418 0.641577 117.448 0.904994C116.477 1.16841 115.58 1.6522 114.827 2.31875C114.073 2.98529 113.484 3.81661 113.104 4.74807C112.725 5.67952 112.565 6.68599 112.638 7.68921C112.71 8.69242 113.014 9.66533 113.524 10.5323L113.542 10.5572C113.791 10.9807 114.106 11.2828 114.424 11.725L118.226 16.7573C118.336 16.9001 118.478 17.0158 118.64 17.0953C118.802 17.1749 118.98 17.2163 119.16 17.2163C119.341 17.2163 119.519 17.1749 119.681 17.0953C119.843 17.0158 119.984 16.9001 120.094 16.7573L123.831 11.809C124.171 11.4118 124.488 10.996 124.781 10.5634L124.797 10.5447C125.39 9.54026 125.702 8.39474 125.7 7.22826ZM119.16 10.0745C118.591 10.0739 118.035 9.90462 117.562 9.58807C117.09 9.27152 116.721 8.82192 116.504 8.29609C116.287 7.77026 116.23 7.19181 116.342 6.63386C116.453 6.0759 116.727 5.56349 117.13 5.16139C117.532 4.75929 118.045 4.48556 118.603 4.37478C119.161 4.26401 119.74 4.32117 120.265 4.53905C120.791 4.75692 121.24 5.12573 121.556 5.59884C121.872 6.07196 122.041 6.62815 122.041 7.19712C122.041 7.57524 121.966 7.94966 121.821 8.29897C121.677 8.64827 121.464 8.96561 121.197 9.23284C120.929 9.50008 120.612 9.71196 120.262 9.85638C119.913 10.0008 119.538 10.0749 119.16 10.0745Z" fill="#E0E0E0"/>
<path d="M10.5638 101.344C11.2265 100.884 11.7394 100.238 12.0389 99.4889C12.3384 98.7394 12.4113 97.9184 12.2485 97.1279C11.8219 94.8888 9.75729 93.391 7.67398 93.7927C5.59067 94.1944 4.21737 96.3306 4.644 98.5728C4.78332 99.3747 5.15742 100.117 5.71896 100.707C6.2805 101.296 7.00423 101.705 7.79854 101.883C2.12472 103.901 3.62881 110.204 3.62881 110.204L17.4646 107.576C17.4646 107.576 16.5304 101.092 10.5638 101.344Z" fill="#EBEBEB"/>
<path d="M27.3265 128.213L24.4927 127.509C24.4927 127.509 23.9041 129.901 21.4066 129.331C20.9238 129.23 20.4843 128.981 20.1495 128.619C19.8146 128.257 19.6009 127.799 19.5382 127.31C19.4793 126.9 19.5183 126.482 19.652 126.09C19.7857 125.698 20.0103 125.344 20.3074 125.055C20.9862 124.376 22.2256 123.912 24.0443 124.725L25.6293 118.301L22.8111 117.606L21.8769 121.371C21.8769 121.371 17.676 121.418 16.6048 125.772C15.5771 129.938 19.0742 131.825 20.6748 132.218C21.9018 132.52 26.14 133.252 27.3265 128.213Z" fill="#EBEBEB"/>
<path d="M23.1007 116.276L25.958 116.979L26.6158 114.31L23.7584 113.606L23.1007 116.276Z" fill="#EBEBEB"/>
<path d="M135.39 137.919C135.39 137.962 105.078 138 67.6967 138C30.3154 138 0 137.95 0 137.919C0 137.888 30.303 137.838 67.6967 137.838C105.09 137.838 135.39 137.872 135.39 137.919Z" fill="black"/>
<path d="M7.67607 59.5366H14.1814L13.6084 62.4545H1.89014L2.35413 60.1345L9.40749 54.607C11.1514 53.2119 11.6839 52.3961 11.6839 51.3778C11.6839 50.3595 10.9085 49.6744 9.40749 49.6744C8.77396 49.6839 8.15043 49.8338 7.5818 50.1132C7.01316 50.3927 6.51358 50.7948 6.11904 51.2906L3.70875 49.5436C4.95438 47.8402 7.26813 46.7129 9.93688 46.7129C13.2098 46.7129 15.3522 48.4599 15.3522 50.8702C15.3522 52.7043 14.5146 54.252 11.7929 56.354L7.67607 59.5366Z" fill="#263238"/>
<path d="M29.6802 59.2075H27.1391L26.4976 62.4554H23.0036L23.6669 59.2075H15.3306L15.7946 56.7972L24.9063 46.9785H28.8176L20.3286 56.2865H24.3956L24.9717 53.3904H28.31L27.7339 56.2865H30.2781L29.6802 59.2075Z" fill="#263238"/>
<path d="M39.8944 43.8398H43.1237L31.7605 64.6667H28.5405L39.8944 43.8398Z" fill="#263238"/>
<path d="M54.6428 46.9785L54.1788 49.3016L45.9109 62.4554H41.9312L49.8658 49.8964H44.849L44.3383 52.4188H41.1558L42.2426 46.9785H54.6428Z" fill="#263238"/>
<path d="M0.442383 74.666L1.34858 72.947C2.15623 73.463 3.09319 73.7404 4.05158 73.7473C4.93598 73.7473 5.44669 73.4702 5.44669 73.028C5.44669 71.9349 1.49805 72.5391 1.49805 69.9855C1.49805 68.2323 2.99592 67.0832 5.39997 67.0832C6.41959 67.0494 7.42955 67.2903 8.32408 67.7808L7.48951 69.4873C6.81936 69.0748 6.04675 68.859 5.25984 68.8645C4.30694 68.8645 3.79623 69.2132 3.79623 69.6554C3.79623 70.7703 7.74487 70.1319 7.74487 72.6387C7.74487 74.3795 6.21275 75.5286 3.8336 75.5286C2.4385 75.5348 1.17419 75.1642 0.442383 74.666Z" fill="#263238"/>
<path d="M11.84 69.0223L11.5753 70.3925H15.1845L14.8389 72.1084H11.2265L10.9338 73.5969H15.197L14.8233 75.3719H8.29932L9.93732 67.2598H16.2994L15.9381 69.0379L11.84 69.0223Z" fill="#263238"/>
<path d="M22.2288 72.9336L23.6115 75.3719H21.2074L19.9991 73.2139H18.8407L18.411 75.3719H16.1128L17.7352 67.2598H21.2074C23.2845 67.2598 24.4803 68.2251 24.4803 69.8507C24.4966 70.5407 24.2848 71.2168 23.8777 71.7742C23.4707 72.3316 22.8911 72.7391 22.2288 72.9336ZM20.8835 69.0566H19.6753L19.1988 71.4357H20.569C21.5811 71.4357 22.1728 70.9499 22.1728 70.0562C22.1603 69.3711 21.6714 69.0566 20.8835 69.0566Z" fill="#263238"/>
<path d="M34.5543 67.2598L29.4753 75.3719H27.2113L25.3491 67.2598H27.7065L28.868 72.5537L32.1876 67.2598H34.5543Z" fill="#263238"/>
<path d="M35.0402 67.2598H37.3415L35.7035 75.3719H33.4053L35.0402 67.2598Z" fill="#263238"/>
<path d="M37.6992 71.9606C37.6992 69.1393 39.7763 67.084 42.7938 67.084C44.2917 67.084 45.5124 67.6321 46.0916 68.6161L44.4225 69.9396C44.236 69.6376 43.9716 69.3914 43.657 69.227C43.3425 69.0626 42.9894 68.986 42.635 69.0054C41.0562 69.0054 40.0099 70.223 40.0099 71.8236C40.0099 72.9166 40.7541 73.6484 41.9966 73.6484C42.376 73.6502 42.7509 73.5673 43.0941 73.4057C43.4373 73.2441 43.7401 73.0078 43.9803 72.7142L45.338 74.047C44.4225 75.1525 43.2267 75.5574 41.7755 75.5574C39.2905 75.5356 37.6992 74.0844 37.6992 71.9606Z" fill="#263238"/>
<path d="M49.4457 69.0223L49.1779 70.3925H52.7871L52.4508 72.1084H48.8291L48.5395 73.5969H52.7996L52.429 75.3719H45.9175L47.5368 67.2598H53.8988L53.5407 69.0379L49.4457 69.0223Z" fill="#263238"/>
<path d="M9.28036 42.3969H4.74316C4.74316 36.0816 7.29981 29.6293 11.756 24.6779C16.4458 19.4743 22.5338 16.6094 28.8834 16.6094C41.8597 16.6094 50.9248 26.0824 50.9248 39.6535H46.3969C46.3969 28.5892 39.3622 21.1559 28.8927 21.1559C18.6288 21.1466 9.28036 31.2735 9.28036 42.3969Z" fill="#3575DF"/>
<path d="M11.7687 41.1376C12.4943 41.1376 13.0829 41.2093 13.0797 41.2747C13.0766 41.3401 12.4912 41.3899 11.7687 41.3899C11.0463 41.3899 10.4546 41.3307 10.4546 41.2529C10.4546 41.175 11.0463 41.1252 11.7687 41.1376Z" fill="#263238"/>
<path d="M14.9007 31.19C15.5235 31.5886 15.9439 31.9965 15.8754 32.1055C15.8068 32.2145 15.2525 31.9934 14.6297 31.6166C14.0069 31.2398 13.5927 30.8256 13.6581 30.7011C13.7235 30.5765 14.2934 30.7945 14.9007 31.19Z" fill="#263238"/>
<path d="M22.7486 24.3364C23.0444 24.9997 23.1908 25.582 23.06 25.6319C22.9292 25.6817 22.596 25.199 22.2784 24.5482C21.9608 23.8973 21.8144 23.3025 21.967 23.2527C22.1196 23.2029 22.4559 23.6638 22.7486 24.3364Z" fill="#263238"/>
<path d="M33.0872 23.5204C32.9066 24.2242 32.6606 24.766 32.5391 24.7411C32.4177 24.7162 32.4426 24.1183 32.5983 23.4052C32.754 22.6921 32.9969 22.1596 33.1464 22.1876C33.2959 22.2156 33.2678 22.8197 33.0872 23.5204Z" fill="#263238"/>
<path d="M41.5324 29.4547C40.9282 29.8533 40.3833 30.0962 40.3117 29.9966C40.24 29.8969 40.6604 29.4672 41.2459 29.0406C41.8313 28.6139 42.3794 28.3741 42.4666 28.4987C42.5538 28.6233 42.1365 29.053 41.5324 29.4547Z" fill="#263238"/>
<path d="M44.3135 39.2338C43.591 39.2338 43.0024 39.1777 43.0024 39.1154C43.0024 39.0532 43.5879 38.9909 44.3135 38.9815C45.039 38.9722 45.6245 39.0251 45.6276 39.0999C45.6307 39.1746 45.0453 39.2338 44.3135 39.2338Z" fill="#263238"/>
<path d="M27.6531 40.5853C27.4271 40.5869 27.2073 40.5111 27.0303 40.3705L19.404 34.4537C19.1925 34.2885 19.0554 34.0461 19.0227 33.7798C18.99 33.5135 19.0644 33.2451 19.2296 33.0337C19.3948 32.8223 19.6372 32.6851 19.9035 32.6524C20.1698 32.6197 20.4382 32.6941 20.6496 32.8593L27.6064 38.2529L37.2133 29.4307C37.4095 29.2486 37.6699 29.1519 37.9374 29.1618C38.2049 29.1718 38.4574 29.2875 38.6396 29.4837C38.8217 29.6798 38.9184 29.9403 38.9085 30.2078C38.8985 30.4752 38.7828 30.7278 38.5866 30.9099L28.3507 40.3144C28.1611 40.4902 27.9117 40.5871 27.6531 40.5853Z" fill="#3575DF"/>
<path d="M32.8253 9.94043H24.081C23.9451 9.94043 23.835 10.0506 23.835 10.1864V13.3534C23.835 13.4893 23.9451 13.5995 24.081 13.5995H32.8253C32.9611 13.5995 33.0713 13.4893 33.0713 13.3534V10.1864C33.0713 10.0506 32.9611 9.94043 32.8253 9.94043Z" fill="#3575DF"/>
<path d="M30.8388 11.7705H26.0649V16.0991H30.8388V11.7705Z" fill="#3575DF"/>
<path d="M8.74757 21.138L5.16155 25.5791C5.02217 25.7517 5.04911 26.0046 5.22172 26.144L7.67361 28.1238C7.84623 28.2632 8.09915 28.2363 8.23853 28.0636L11.8245 23.6226C11.9639 23.45 11.937 23.1971 11.7644 23.0577L9.31248 21.0779C9.13987 20.9385 8.88695 20.9654 8.74757 21.138Z" fill="#3575DF"/>
<path d="M32.8253 13.5983C32.8253 13.6512 30.8666 13.6917 28.4656 13.6917C26.0647 13.6917 24.106 13.6512 24.106 13.5983C24.106 13.5454 26.0616 13.5049 28.4656 13.5049C30.8697 13.5049 32.8253 13.5485 32.8253 13.5983Z" fill="#263238"/>
<path d="M8.66655 27.3008C8.61672 27.3569 7.95654 26.8524 7.14065 26.2389C6.32477 25.6254 5.66147 25.1272 5.70196 25.0649C5.74244 25.0026 6.47424 25.4074 7.29947 26.0271C8.1247 26.6468 8.71326 27.2479 8.66655 27.3008Z" fill="#263238"/>
<path d="M9.42698 26.1826C9.37715 26.2387 8.71697 25.7342 7.90108 25.1207C7.0852 24.5073 6.41879 24.009 6.45927 23.9467C6.49975 23.8845 7.23467 24.2893 8.0599 24.9121C8.88513 25.5349 9.47369 26.1297 9.42698 26.1826Z" fill="#263238"/>
<path d="M10.358 25.2461C10.3113 25.3022 9.65114 24.7977 8.83526 24.1842C8.01937 23.5707 7.36542 23.0725 7.39345 23.0102C7.42147 22.9479 8.16885 23.3528 8.99096 23.9756C9.81308 24.5984 10.4079 25.1932 10.358 25.2461Z" fill="#263238"/>
<path d="M11.2604 24.1279C11.2137 24.184 10.5504 23.6795 9.73449 23.0661C8.91861 22.4526 8.25531 21.9543 8.29891 21.892C8.34251 21.8298 9.07431 22.2346 9.89642 22.8574C10.7185 23.4802 11.3071 24.075 11.2604 24.1279Z" fill="#263238"/>
<path d="M50.4031 22.541L46.5431 18.336C46.3931 18.1725 46.139 18.1617 45.9755 18.3117L43.6539 20.4428C43.4905 20.5928 43.4796 20.8469 43.6296 21.0104L47.4896 25.2155C47.6397 25.3789 47.8938 25.3898 48.0572 25.2397L50.3788 23.1086C50.5423 22.9586 50.5532 22.7045 50.4031 22.541Z" fill="#3575DF"/>
<path d="M44.32 21.5517C44.2732 21.4957 44.868 20.9289 45.5967 20.2002C46.3254 19.4715 46.914 18.9016 46.97 18.9546C47.0261 19.0075 46.5185 19.6708 45.7805 20.3933C45.0424 21.1157 44.3636 21.6047 44.32 21.5517Z" fill="#263238"/>
<path d="M45.313 22.4677C45.2631 22.4117 45.861 21.8449 46.5866 21.1162C47.3122 20.3875 47.907 19.8177 47.963 19.8706C48.0191 19.9235 47.5084 20.5868 46.7735 21.3093C46.0385 22.0318 45.3566 22.5207 45.313 22.4677Z" fill="#263238"/>
<path d="M46.101 23.5302C46.0512 23.4742 46.6491 22.9074 47.3747 22.1787C48.1003 21.45 48.6951 20.8802 48.7511 20.9331C48.8072 20.986 48.2965 21.6462 47.5584 22.3687C46.8204 23.0911 46.1446 23.5832 46.101 23.5302Z" fill="#263238"/>
<path d="M47.0722 24.5976C47.0224 24.5416 47.6203 23.9748 48.3459 23.2461C49.0715 22.5174 49.6663 21.9475 49.7223 22.0005C49.7784 22.0534 49.2677 22.7167 48.5296 23.4392C47.7916 24.1616 47.1158 24.6412 47.0722 24.5976Z" fill="#263238"/>
<path d="M25.0624 13.5955C24.9908 13.5955 24.9316 12.7859 24.9316 11.7925C24.9316 10.7991 24.9908 9.98633 25.0624 9.98633C25.1341 9.98633 25.1963 10.796 25.1963 11.7925C25.1963 12.789 25.1372 13.5955 25.0624 13.5955Z" fill="#263238"/>
<path d="M26.7748 13.5955C26.7032 13.5955 26.644 12.7859 26.644 11.7925C26.644 10.7991 26.7032 9.98633 26.7748 9.98633C26.8465 9.98633 26.9056 10.796 26.9056 11.7925C26.9056 12.789 26.8465 13.5955 26.7748 13.5955Z" fill="#263238"/>
<path d="M28.4848 13.5955C28.4132 13.5955 28.354 12.7859 28.354 11.7925C28.354 10.7991 28.4132 9.98633 28.4848 9.98633C28.5564 9.98633 28.6156 10.796 28.6156 11.7925C28.6156 12.789 28.5595 13.5955 28.4848 13.5955Z" fill="#263238"/>
<path d="M30.1972 13.5955C30.1225 13.5955 30.0664 12.7859 30.0664 11.7925C30.0664 10.7991 30.1225 9.98633 30.1972 9.98633C30.2719 9.98633 30.328 10.796 30.328 11.7925C30.328 12.789 30.2688 13.5955 30.1972 13.5955Z" fill="#263238"/>
<path d="M31.9072 13.5955C31.8355 13.5955 31.7764 12.7859 31.7764 11.7925C31.7764 10.7991 31.8355 9.98633 31.9072 9.98633C31.9788 9.98633 32.0379 10.796 32.0379 11.7925C32.0379 12.789 31.9663 13.5955 31.9072 13.5955Z" fill="#263238"/>
<path d="M29.504 40.8467C30.3967 39.9541 30.3967 38.5068 29.504 37.6142C28.6114 36.7216 27.1642 36.7216 26.2715 37.6142C25.3789 38.5068 25.3789 39.9541 26.2715 40.8467C27.1642 41.7393 28.6114 41.7394 29.504 40.8467Z" fill="#3575DF"/>
<path d="M30.1728 39.2351C30.151 39.2351 30.1542 39.0327 30.0576 38.687C29.9191 38.2047 29.6245 37.7819 29.2199 37.485C28.8956 37.2442 28.5108 37.0982 28.1084 37.0634C27.7059 37.0286 27.3017 37.1062 26.9409 37.2877C26.58 37.4692 26.2767 37.7474 26.0647 38.0913C25.8528 38.4352 25.7405 38.8312 25.7405 39.2351C25.7405 39.6391 25.8528 40.035 26.0647 40.3789C26.2767 40.7228 26.58 41.001 26.9409 41.1825C27.3017 41.364 27.7059 41.4417 28.1084 41.4068C28.5108 41.372 28.8956 41.226 29.2199 40.9852C29.6238 40.6876 29.9183 40.2651 30.0576 39.7832C30.1542 39.4375 30.151 39.2351 30.1728 39.2351C30.1946 39.2351 30.1728 39.2849 30.1728 39.3815C30.1778 39.524 30.1631 39.6665 30.1292 39.805C30.0175 40.3249 29.7265 40.7889 29.3071 41.116C28.9938 41.362 28.6233 41.5247 28.2302 41.5889C27.8371 41.6532 27.4341 41.6169 27.0588 41.4835C26.5941 41.3188 26.1919 41.0142 25.9074 40.6116C25.623 40.209 25.4702 39.7281 25.4702 39.2351C25.4702 38.7421 25.623 38.2613 25.9074 37.8586C26.1919 37.456 26.5941 37.1514 27.0588 36.9868C27.434 36.8538 27.8366 36.8174 28.2296 36.8811C28.6226 36.9448 28.9931 37.1064 29.3071 37.3511C29.7263 37.6797 30.0171 38.1446 30.1292 38.6652C30.1631 38.8037 30.1778 38.9462 30.1728 39.0888C30.1884 39.1791 30.1822 39.2351 30.1728 39.2351Z" fill="#263238"/>
<path d="M108.345 47.0626L112.25 46.4398C114.809 48.5049 118.049 49.5379 121.331 49.3357C124.614 49.1335 127.702 47.7108 129.988 45.3471C132.275 42.9835 133.595 39.85 133.688 36.5626C133.782 33.2752 132.642 30.0717 130.494 27.582C128.345 25.0922 125.343 23.4963 122.077 23.1078C118.811 22.7194 115.518 23.5667 112.846 25.483C110.173 27.3993 108.314 30.2461 107.633 33.4638C106.953 36.6814 107.501 40.037 109.17 42.8711L108.345 47.0626Z" fill="white"/>
<path d="M108.345 47.0636C108.345 47.0636 108.345 46.9764 108.389 46.7989L108.538 46.0017C108.672 45.2855 108.871 44.2361 109.13 42.8659C109.131 42.8614 109.132 42.8571 109.135 42.8534C109.137 42.8496 109.14 42.8464 109.144 42.844C109.148 42.8417 109.152 42.8402 109.157 42.8396C109.161 42.8391 109.166 42.8396 109.17 42.841C109.173 42.8393 109.176 42.8385 109.18 42.8385C109.183 42.8385 109.186 42.8393 109.189 42.841L109.133 42.8846C108.019 41.0034 107.388 38.8752 107.299 36.6907C107.271 36.0108 107.297 35.3298 107.377 34.6541C107.469 33.9307 107.617 33.2155 107.819 32.5147C108.554 29.9741 110.036 27.7129 112.071 26.0239C114.107 24.3349 116.602 23.296 119.235 23.0417C121.301 22.8468 123.383 23.142 125.313 23.9033C127.243 24.6646 128.967 25.8706 130.343 27.4232L130.872 28.046C131.037 28.264 131.184 28.4914 131.346 28.7093C131.653 29.1525 131.933 29.6143 132.183 30.092C132.32 30.3224 132.407 30.5778 132.523 30.8176C132.638 31.0573 132.756 31.2971 132.834 31.5525C133.019 32.0467 133.172 32.5522 133.292 33.0659C133.771 35.062 133.787 37.1413 133.339 39.1446C132.738 41.7495 131.361 44.1109 129.39 45.9168C127.419 47.7227 124.947 48.8881 122.299 49.2591C121.572 49.3578 120.838 49.4005 120.104 49.3867C119.422 49.3544 118.743 49.2816 118.07 49.1687C115.928 48.7698 113.919 47.8405 112.228 46.4657H112.256L109.335 46.9048L108.591 47.0138L108.345 47.0481L108.604 47.0014L109.354 46.8768L112.244 46.3972H112.272C113.961 47.7493 115.96 48.66 118.089 49.0473C118.757 49.1585 119.431 49.2282 120.107 49.2559C120.836 49.2677 121.565 49.2229 122.287 49.122C124.902 48.7436 127.343 47.5837 129.287 45.7944C131.232 44.005 132.591 41.6698 133.186 39.0947C133.626 37.1145 133.608 35.0599 133.133 33.0877C133.011 32.5813 132.86 32.0822 132.682 31.593C132.604 31.3407 132.473 31.1103 132.37 30.8674C132.267 30.6245 132.168 30.3785 132.034 30.1511C131.787 29.6792 131.51 29.2236 131.205 28.7872C131.05 28.5692 130.894 28.345 130.738 28.1301L130.215 27.5073C128.856 25.9736 127.154 24.7816 125.248 24.028C123.342 23.2744 121.285 22.9802 119.244 23.1694C117.438 23.3479 115.688 23.8992 114.105 24.7884C112.522 25.6777 111.141 26.8855 110.048 28.3356C109.097 29.6043 108.385 31.0365 107.95 32.5614C107.748 33.2552 107.6 33.963 107.504 34.679C107.422 35.3493 107.393 36.0251 107.417 36.7C107.493 38.8694 108.104 40.9863 109.195 42.8628C109.201 42.8691 109.204 42.8775 109.204 42.8861C109.204 42.8948 109.201 42.9031 109.195 42.9095C109.189 42.9145 109.181 42.9173 109.173 42.9173C109.165 42.9173 109.158 42.9145 109.152 42.9095L109.208 42.8908C108.934 44.2454 108.722 45.2855 108.585 46.0049C108.513 46.3567 108.457 46.6277 108.42 46.8083C108.382 46.9889 108.345 47.0636 108.345 47.0636Z" fill="#263238"/>
<path d="M124.504 36.5812C124.503 36.3167 124.581 36.058 124.728 35.8379C124.874 35.6177 125.083 35.446 125.327 35.3445C125.571 35.243 125.84 35.2163 126.1 35.2677C126.359 35.3192 126.597 35.4465 126.784 35.6335C126.972 35.8205 127.099 36.0588 127.15 36.3183C127.202 36.5777 127.175 36.8466 127.073 37.0908C126.972 37.335 126.8 37.5436 126.58 37.6902C126.36 37.8368 126.101 37.9147 125.837 37.914C125.483 37.9132 125.145 37.7725 124.895 37.5228C124.645 37.273 124.505 36.9345 124.504 36.5812Z" fill="#263238"/>
<path d="M119.16 36.5812C119.16 36.3169 119.237 36.0583 119.384 35.8382C119.53 35.6181 119.739 35.4464 119.983 35.3448C120.227 35.2432 120.495 35.2163 120.755 35.2675C121.014 35.3187 121.252 35.4457 121.44 35.6324C121.627 35.8191 121.754 36.0571 121.806 36.3163C121.858 36.5756 121.832 36.8443 121.731 37.0886C121.63 37.3329 121.458 37.5418 121.239 37.6887C121.019 37.8356 120.76 37.9141 120.496 37.9141C120.142 37.9141 119.803 37.7737 119.553 37.5239C119.302 37.274 119.161 36.935 119.16 36.5812Z" fill="#263238"/>
<path d="M113.831 37.2472C113.699 37.0183 113.638 36.7555 113.655 36.4918C113.672 36.2281 113.768 35.9755 113.928 35.7659C114.089 35.5563 114.309 35.399 114.559 35.3141C114.809 35.2291 115.079 35.2203 115.334 35.2887C115.589 35.3571 115.818 35.4996 115.993 35.6982C116.167 35.8969 116.278 36.1428 116.313 36.4047C116.347 36.6667 116.303 36.933 116.186 37.17C116.07 37.407 115.885 37.604 115.656 37.7361C115.349 37.9124 114.985 37.9599 114.643 37.8683C114.301 37.7767 114.009 37.5533 113.831 37.2472Z" fill="#263238"/>
<path d="M20.535 84.388C19.716 83.9987 18.3364 83.186 17.4832 82.8683C16.6398 82.5075 15.6988 82.4438 14.8144 82.6877C14.3131 82.8559 13.8117 83.2576 13.8086 83.787L17.1562 86.2564L20.535 85.3658V84.388Z" fill="#FF9A6C"/>
<path d="M16.8721 84.3545C16.8721 84.3545 10.8588 83.0497 9.85611 82.5359C8.85338 82.0221 3.62798 79.4062 2.75292 79.4062C1.87787 79.4062 1.1305 79.6429 0.97168 80.5149L2.11454 81.4024L2.2609 81.857L4.21654 82.8753L4.5622 83.5168L9.5447 86.1762C9.5447 86.1762 14.7701 88.8294 15.642 88.9789C16.514 89.1284 20.8674 89.4927 22.7297 91.0778L30.2034 88.0073C30.2034 88.0073 28.0454 84.9431 26.3825 84.1863C24.9002 83.5137 22.412 83.5137 20.6713 84.2268L16.8721 84.3545Z" fill="#FFBF9D"/>
<path d="M21.8735 89.3704C21.8735 89.3704 31.387 110.116 32.9191 114.283C32.9191 114.283 43.5537 112.533 43.918 106.632L30.2161 87.9473L21.8735 89.3704Z" fill="#FFBF9D"/>
<path d="M13.0386 84.8237C13.0386 84.8237 13.0013 84.8237 12.9359 84.8237C12.8386 84.814 12.7426 84.7942 12.6494 84.7646C12.3083 84.6608 11.977 84.5274 11.6591 84.366C11.2543 84.1698 10.7841 83.9113 10.2671 83.6217C10.0086 83.4785 9.73772 83.3259 9.45434 83.1795C9.17096 83.0332 8.86267 82.9055 8.54815 82.7685C7.9658 82.5047 7.36406 82.2861 6.74822 82.1145C6.18458 81.9744 5.64273 81.8685 5.23479 82.0055C5.07655 82.0689 4.933 82.164 4.81302 82.2851C4.69303 82.4061 4.59917 82.5505 4.53723 82.7093C4.49123 82.8306 4.4382 82.9492 4.37842 83.0643C4.37842 83.0643 4.37842 83.0269 4.39399 82.9647C4.4148 82.8692 4.44291 82.7755 4.47807 82.6844C4.5331 82.5391 4.60747 82.4019 4.69917 82.2764C4.82036 82.1049 4.98929 81.9728 5.18496 81.8965C5.42635 81.8156 5.68285 81.7901 5.93545 81.8218C6.21793 81.8497 6.49793 81.8986 6.77313 81.9682C7.40211 82.1339 8.01656 82.3505 8.61043 82.6159C8.92184 82.7529 9.23325 82.8806 9.52285 83.0332C9.81246 83.1858 10.0803 83.3446 10.3387 83.4909C10.8526 83.7868 11.3134 84.0546 11.7089 84.2601C12.0154 84.4275 12.3327 84.5742 12.6587 84.6992C12.9016 84.7895 13.0386 84.8082 13.0386 84.8237Z" fill="#FF9A6C"/>
<path d="M7.3026 81.8401C7.00942 81.7809 6.72556 81.6824 6.45868 81.5474C5.81642 81.2442 5.15601 80.9811 4.48125 80.7595C4.11204 80.6549 3.72618 80.6221 3.34462 80.663C3.19237 80.6676 3.04265 80.7031 2.90454 80.7673C2.76642 80.8316 2.64281 80.9232 2.54119 81.0367C2.4194 81.2055 2.33936 81.4008 2.30764 81.6065C2.30481 81.6864 2.28904 81.7653 2.26093 81.8401C2.24636 81.7608 2.24636 81.6796 2.26093 81.6003C2.27257 81.3781 2.34354 81.163 2.46645 80.9775C2.56177 80.8477 2.68528 80.7412 2.82768 80.6661C2.99056 80.5886 3.16532 80.5392 3.34462 80.5197C3.74627 80.4692 4.15399 80.4999 4.54353 80.61C5.22788 80.8296 5.8908 81.111 6.52408 81.4508C6.79038 81.5665 7.05026 81.6965 7.3026 81.8401Z" fill="#FF9A6C"/>
<path d="M22.3129 83.7656C22.3129 83.7656 22.2288 83.8154 22.07 83.8714C21.8423 83.9538 21.6105 84.0244 21.3756 84.0832C20.6025 84.2844 19.8101 84.4023 19.012 84.4351C18.2141 84.4695 17.4147 84.4215 16.6266 84.2918C16.3152 84.2389 16.0848 84.186 15.9197 84.1393C15.8314 84.126 15.7461 84.0975 15.6675 84.0552C15.6675 84.0303 16.0412 84.1019 16.6453 84.1766C17.4281 84.2735 18.2176 84.3057 19.0058 84.2732C19.7945 84.2325 20.5786 84.1283 21.3506 83.9618C21.9268 83.8496 22.2911 83.7438 22.3129 83.7656Z" fill="#FF9A6C"/>
<path d="M110.889 71.4487L97.05 68.5838L93.6245 66.0146L75.345 69.5398C75.0522 70.0754 72.0908 74.2109 72.0908 74.2109L64.891 76.6554C61.831 77.4594 59.0998 79.2019 57.081 81.6379C55.1613 84.0088 53.5885 86.6405 52.4099 89.4542C49.1712 97.0556 44.497 105.837 44.497 105.837L41.5667 101.116L29.2163 106.933C29.2163 106.933 36.4503 121.517 38.845 123.6C41.5075 125.914 47.6298 126.182 51.8618 121.865C54.4122 119.262 61.7832 108.973 63.3184 106.398L65.5979 117.166L67.6937 129.458L64.3056 137.918H113.757L111.711 129.921C111.711 129.921 113.726 109.079 114.283 105.199C115.594 96.0467 110.889 71.4487 110.889 71.4487Z" fill="#3575DF"/>
<path d="M110.889 71.4492C110.889 71.4492 120.792 74.227 122.972 84.0705C124.292 90.034 128.776 107.034 130.355 121.028C131.289 129.349 131.264 137.038 131.289 137.919H116.093L109.653 74.227L110.889 71.4492Z" fill="#3575DF"/>
<path d="M85.4901 79.9006C85.4901 79.9006 85.4901 79.938 85.4496 80.0034L85.3095 80.2899C85.1849 80.5421 84.9981 80.9127 84.7957 81.3829C84.3566 82.3172 83.8397 83.7029 83.0051 85.2506L82.9646 85.3285L82.8961 85.2693C81.8685 84.3942 80.7536 83.3417 79.6014 82.2051C77.5617 80.1809 75.7742 78.2969 74.4539 76.961L72.8813 75.3821L72.4484 74.9555C72.3958 74.9083 72.3478 74.8562 72.3052 74.7998C72.3653 74.8377 72.4207 74.8827 72.4702 74.9337L72.9186 75.3385C73.3048 75.6935 73.8529 76.2198 74.5286 76.88C75.8708 78.1973 77.6738 80.0688 79.7073 82.0898C80.8595 83.2265 81.9681 84.2697 82.9833 85.1603L82.8712 85.179C83.712 83.6531 84.2476 82.2736 84.7085 81.3456C84.9358 80.8754 85.1258 80.5141 85.2628 80.2681C85.3251 80.1591 85.378 80.0657 85.4216 79.9941C85.4411 79.9606 85.464 79.9292 85.4901 79.9006Z" fill="black"/>
<path d="M97.2431 68.9355C97.2422 69.009 97.2327 69.0822 97.2151 69.1535C97.184 69.3092 97.1466 69.5148 97.0999 69.7763C96.9878 70.312 96.7885 71.0842 96.5331 72.0247C95.9944 73.8931 95.1225 76.4747 94.0419 79.2618C93.472 80.7379 92.9115 82.133 92.3883 83.3692L92.3478 83.4658L92.27 83.3973C90.8593 82.1516 89.595 81.1707 88.7386 80.442C88.3089 80.0777 87.9726 79.7849 87.7452 79.5794L87.493 79.3427C87.4338 79.2867 87.4058 79.2587 87.4089 79.2556C87.4448 79.2743 87.4782 79.2973 87.5086 79.3241L87.7764 79.5452L88.7947 80.3735C89.6697 81.0835 90.9434 82.0458 92.3696 83.2852L92.2513 83.3132C92.7651 82.0676 93.3225 80.6787 93.8893 79.2057C94.9574 76.4031 95.8449 73.8651 96.4086 71.9936C96.6888 71.0593 96.8944 70.2933 97.0314 69.7608C97.0906 69.5085 97.1404 69.3061 97.1777 69.138C97.1944 69.0689 97.2163 69.0013 97.2431 68.9355Z" fill="black"/>
<path d="M65.2088 115.787C65.1958 115.766 65.1863 115.743 65.1808 115.719L65.1154 115.507C65.0594 115.299 64.9815 115.025 64.8819 114.685C64.776 114.33 64.6732 113.891 64.5487 113.38C64.4241 112.869 64.2902 112.284 64.1563 111.636C63.4673 108.257 62.9827 104.84 62.7051 101.403C62.3532 97.3767 62.2754 93.7177 62.2941 91.0738C62.2941 89.7504 62.3283 88.6791 62.3657 87.9411C62.3844 87.5799 62.3968 87.2965 62.4062 87.0878C62.4062 87.0006 62.4062 86.9259 62.4218 86.8667C62.4185 86.8419 62.4185 86.8168 62.4218 86.792C62.4243 86.8179 62.4243 86.844 62.4218 86.8698V87.0909C62.4218 87.2996 62.4218 87.583 62.4218 87.9411C62.4218 88.6822 62.3968 89.7504 62.4031 91.0738C62.4031 93.7146 62.5089 97.3705 62.8608 101.388C63.1409 104.82 63.6087 108.233 64.2622 111.614C64.3898 112.262 64.5082 112.86 64.6296 113.358C64.7511 113.856 64.8414 114.314 64.941 114.669L65.1466 115.497L65.1933 115.712C65.2088 115.762 65.212 115.787 65.2088 115.787Z" fill="black"/>
<path d="M111.711 82.3682C111.729 82.3951 111.744 82.4244 111.755 82.4554C111.783 82.5208 111.82 82.6048 111.864 82.7107C111.963 82.9474 112.097 83.2806 112.271 83.701C112.359 83.919 112.461 84.1556 112.561 84.4203L112.857 85.2923C112.963 85.6037 113.075 85.9431 113.196 86.2981C113.318 86.6531 113.399 87.0424 113.508 87.4441C114.442 90.6485 114.909 95.2853 114.641 100.358C114.373 105.431 113.776 110.012 113.396 113.3C113.206 114.944 113.05 116.28 112.941 117.215C112.888 117.666 112.844 118.024 112.813 118.276L112.776 118.554C112.774 118.585 112.767 118.617 112.757 118.647C112.753 118.616 112.753 118.585 112.757 118.554L112.779 118.273C112.804 118.018 112.838 117.651 112.879 117.208C112.966 116.274 113.103 114.941 113.28 113.288C113.62 109.981 114.193 105.415 114.467 100.352C114.741 95.2884 114.28 90.6765 113.386 87.4721L113.075 86.3261L112.763 85.3234C112.664 85.012 112.57 84.7162 112.483 84.4484C112.396 84.1805 112.29 83.9408 112.206 83.7228C112.044 83.2961 111.92 82.9629 111.826 82.7232C111.789 82.6142 111.758 82.5301 111.733 82.4616C111.721 82.4318 111.713 82.4002 111.711 82.3682Z" fill="black"/>
<path d="M44.5779 116.441C44.5343 116.441 44.4814 114.068 44.4627 111.147C44.444 108.226 44.4627 105.854 44.5094 105.854C44.5561 105.854 44.606 108.226 44.6247 111.147C44.6433 114.068 44.6247 116.441 44.5779 116.441Z" fill="black"/>
<path d="M89.5141 130.812V130.681C89.5141 130.588 89.539 130.463 89.5577 130.301C89.6013 129.959 89.6604 129.47 89.7383 128.841C89.7788 128.529 89.8224 128.171 89.8722 127.788C89.922 127.405 89.9594 126.982 90.0061 126.543C90.0964 125.639 90.221 124.615 90.3175 123.475C90.3642 122.908 90.4109 122.311 90.4639 121.691C90.5168 121.071 90.5417 120.423 90.5822 119.754C90.6756 118.415 90.7161 116.979 90.769 115.472C90.8376 112.455 90.8282 109.135 90.6725 105.656C90.5168 102.178 90.1992 98.871 89.8473 95.8721C89.6511 94.3742 89.4798 92.9511 89.2587 91.6276C89.156 90.9643 89.0657 90.3228 88.9473 89.7094C88.829 89.0959 88.7325 88.5073 88.6359 87.9437C88.446 86.8195 88.228 85.8106 88.0505 84.9199C87.9602 84.4746 87.8792 84.0605 87.8013 83.6743C87.7235 83.2882 87.6394 82.9487 87.5678 82.6373L87.2564 81.2017C87.2252 81.0429 87.1972 80.9184 87.1785 80.8281C87.1598 80.7378 87.1567 80.6973 87.1567 80.6973C87.1725 80.7377 87.185 80.7794 87.1941 80.8218L87.2906 81.1924L87.6363 82.6249L87.8823 83.6587C87.9633 84.0387 88.0505 84.4497 88.147 84.9044C88.3307 85.7919 88.5581 86.8008 88.7542 87.925C88.858 88.4876 88.9619 89.0762 89.0657 89.6907C89.1778 90.3135 89.2681 90.9363 89.3771 91.609C89.6013 92.9355 89.7788 94.3587 89.9812 95.8565C90.3393 98.8585 90.6445 102.169 90.8189 105.65C90.9933 109.132 90.9808 112.458 90.903 115.478C90.8438 116.989 90.8002 118.424 90.7005 119.763C90.6569 120.433 90.6258 121.08 90.5729 121.703C90.5199 122.326 90.4639 122.921 90.414 123.491C90.3269 124.631 90.1929 125.671 90.1026 126.555C90.0497 127.007 89.9999 127.427 89.9563 127.801C89.9127 128.174 89.8535 128.536 89.8068 128.853C89.7165 129.476 89.6449 129.968 89.5982 130.307L89.539 130.687C89.5343 130.73 89.5259 130.771 89.5141 130.812Z" fill="black"/>
<path d="M96.0972 97.199H96.1595L96.3556 97.1772L97.1186 97.0901L100.036 96.7786L110.422 95.7012H110.5V95.779C110.578 98.9211 110.671 102.477 110.768 106.249V106.283L110.746 106.305L109.5 107.653L104.96 112.505L104.919 112.548L104.866 112.52L97.2151 108.721L97.1809 108.706V108.677C96.8477 105.205 96.5581 102.334 96.3805 100.319C96.2871 99.3291 96.2155 98.5505 96.1657 98.0118C96.1439 97.7533 96.1252 97.554 96.1127 97.4077C96.1003 97.2613 96.1127 97.2084 96.1127 97.2084C96.1127 97.2084 96.1127 97.2831 96.1408 97.4201C96.1688 97.5572 96.1812 97.772 96.2124 98.043C96.2684 98.5879 96.3525 99.3695 96.4615 100.366C96.6702 102.365 96.966 105.221 97.3272 108.674L97.2899 108.621L104.95 112.399L104.86 112.414L109.391 107.544L110.637 106.199L110.615 106.255C110.525 102.484 110.437 98.9305 110.363 95.7853L110.444 95.8538L100.089 96.844L97.1528 97.1181L96.3712 97.1866L96.1688 97.2053L96.0972 97.199Z" fill="black"/>
<path d="M110.519 99.3928C110.342 99.4418 110.162 99.4762 109.98 99.4955C109.631 99.5516 109.127 99.6232 108.501 99.7042C107.255 99.863 105.514 100.047 103.599 100.23L98.6915 100.71L97.2061 100.866C97.0259 100.895 96.8436 100.908 96.6611 100.906C96.8376 100.857 97.0178 100.823 97.1999 100.803C97.5486 100.747 98.0531 100.676 98.6791 100.595C99.9247 100.436 101.665 100.252 103.584 100.069L108.488 99.589L109.974 99.4333C110.154 99.4043 110.336 99.3908 110.519 99.3928Z" fill="black"/>
<g opacity="0.3">
<path d="M113.527 111.639L114.05 118.001C115.206 112.551 117.021 106.694 116.738 101.132C116.454 95.5703 115.931 90.2483 112.798 85.2129C114.16 89.0041 114.785 93.0206 114.639 97.0463C114.352 103.555 113.527 111.639 113.527 111.639Z" fill="black"/>
</g>
<path d="M42.517 99.7958C42.3487 99.4126 42.0511 99.1006 41.6762 98.9146C41.2402 98.7651 40.7668 98.9768 40.3527 99.1824L29.0548 104.806C28.3106 105.177 27.4978 105.616 27.2238 106.395C26.8657 107.391 27.5352 108.444 28.158 109.3C29.1981 110.729 30.4437 112.286 32.2063 112.489L41.9253 105.825C43.1117 105.65 43.8498 104.327 43.7937 103.128C43.7377 101.929 43.1211 100.836 42.517 99.7958Z" fill="#3575DF"/>
<path d="M43.744 103.87C43.7152 103.91 43.6818 103.947 43.6444 103.979L43.333 104.269C43.0651 104.518 42.6697 104.87 42.1745 105.293C41.1811 106.143 39.7705 107.274 38.1262 108.426C36.482 109.578 34.9779 110.528 33.8351 111.169C33.2683 111.496 32.8043 111.752 32.4804 111.92L32.1067 112.11C32.0196 112.153 31.9728 112.172 31.9697 112.166C32.0057 112.132 32.0467 112.103 32.0912 112.082L32.4493 111.864L33.7759 111.07C34.8938 110.397 36.4166 109.432 38.0422 108.283C39.6677 107.133 41.0877 106.022 42.0904 105.197L43.2831 104.209L43.5945 103.945C43.7004 103.895 43.7409 103.864 43.744 103.87Z" fill="black"/>
<g opacity="0.3">
<path d="M97.0968 69.6494C95.7671 74.0652 93.9048 79.0601 92.3322 83.3513C90.9932 82.2147 89.1185 80.7106 87.7764 79.5708C88.9315 81.8624 90.3182 84.0297 91.915 86.0387C92.1018 86.2723 92.3509 86.5276 92.6405 86.4716C92.9301 86.4155 93.0609 86.1166 93.1606 85.8488L95.6114 79.3622C96.7573 76.3291 97.8628 72.7915 97.0968 69.6494Z" fill="black"/>
</g>
<path d="M76.0769 21.6083C80.1252 20.4437 83.9119 21.6083 87.6456 23.5453C91.3794 25.4822 94.3907 28.6804 96.3401 32.4017C98.3954 36.3223 99.3047 40.8906 98.5604 45.2534C97.8162 49.6162 95.3498 53.7268 91.6566 56.1526C86.6087 59.4785 79.6518 59.3041 74.4545 56.2243C69.2571 53.1445 65.8347 47.4675 64.9285 41.4916C64.3057 37.3748 64.8102 33.0338 66.7316 29.3468C68.653 25.6597 72.0504 22.6702 76.0738 21.6052" fill="#263238"/>
<path d="M89.3679 34.28C88.5862 32.7759 88.6205 30.9915 88.1939 29.3473C87.2597 25.7319 83.9587 23.1192 80.3713 22.0759C77.0362 21.1012 73.1779 21.833 69.4721 23.5084C66.9373 24.6575 64.6297 26.4201 63.1163 28.7556C62.1264 30.3211 61.5252 32.1005 61.3627 33.9455C61.2002 35.7906 61.4811 37.6477 62.1821 39.3621L80.6765 34.4979C82.601 35.7436 84.5722 37.0297 86.7988 37.612C87.4465 37.8125 88.1348 37.8436 88.798 37.7023C89.1271 37.6245 89.4269 37.4536 89.6615 37.2101C89.8962 36.9666 90.0559 36.6608 90.1215 36.329C90.1993 35.5879 89.7073 34.937 89.3679 34.28Z" fill="#263238"/>
<path d="M93.7804 67.073L89.0065 33.4972C88.7947 31.909 88.0723 30.2897 86.4748 30.3644L69.6588 28.7451C64.3898 28.988 61.9172 35.9075 62.3844 41.1484C62.9044 46.9842 63.767 54.0874 65.1092 58.2976C67.8091 66.7585 74.6257 66.8457 74.6257 66.8457C74.6257 66.8457 75.0399 68.5273 75.56 71.6725L86.4592 78.9221L93.7804 67.073Z" fill="#FFBF9D"/>
<path d="M66.4483 47.537C66.4901 47.8274 66.6438 48.0899 66.8765 48.2685C67.1092 48.4472 67.4026 48.5277 67.6939 48.493C67.8371 48.4829 67.9769 48.4442 68.1049 48.3791C68.2329 48.3141 68.3466 48.224 68.4392 48.1143C68.5318 48.0045 68.6014 47.8773 68.6441 47.7402C68.6867 47.6031 68.7014 47.4588 68.6873 47.3159C68.6447 47.0257 68.4909 46.7633 68.2585 46.5844C68.0261 46.4054 67.7331 46.3238 67.4416 46.3568C67.2984 46.3677 67.1588 46.4071 67.031 46.4726C66.9032 46.5382 66.7897 46.6285 66.6972 46.7384C66.6047 46.8483 66.5351 46.9755 66.4923 47.1126C66.4496 47.2498 66.4346 47.394 66.4483 47.537Z" fill="#263238"/>
<path d="M64.4865 44.5938C64.6453 44.7184 65.3927 43.971 66.5916 43.7873C67.7905 43.6036 68.7559 44.0738 68.8649 43.9056C68.9178 43.8309 68.7372 43.5942 68.3137 43.37C67.7407 43.092 67.0961 42.9963 66.4671 43.096C65.844 43.1885 65.2669 43.4776 64.8197 43.9212C64.4927 44.2575 64.4087 44.5284 64.4865 44.5938Z" fill="#263238"/>
<path d="M77.5127 45.7367C77.5538 46.0277 77.7072 46.291 77.94 46.4702C78.1728 46.6495 78.4665 46.7305 78.7583 46.6958C78.9016 46.6857 79.0413 46.647 79.1693 46.5819C79.2973 46.5169 79.411 46.4268 79.5036 46.3171C79.5962 46.2073 79.6659 46.0801 79.7085 45.943C79.7511 45.8059 79.7658 45.6616 79.7517 45.5187C79.7106 45.2278 79.5573 44.9645 79.3244 44.7852C79.0916 44.606 78.7979 44.525 78.5061 44.5596C78.363 44.5701 78.2235 44.6092 78.0957 44.6743C77.9679 44.7395 77.8544 44.8296 77.7618 44.9392C77.6693 45.0489 77.5996 45.1759 77.5568 45.3128C77.514 45.4498 77.499 45.5939 77.5127 45.7367Z" fill="#263238"/>
<path d="M75.8744 43.0083C76.0332 43.1328 76.7837 42.3855 77.9795 42.2017C79.1753 42.018 80.1438 42.4882 80.2528 42.3201C80.3057 42.2453 80.1251 42.0087 79.7016 41.7844C79.1276 41.5058 78.4819 41.4101 77.8518 41.5104C77.2209 41.6034 76.6367 41.8971 76.1858 42.3481C75.8744 42.6595 75.7903 42.9709 75.8744 43.0083Z" fill="#263238"/>
<path d="M73.2956 52.5591C73.2956 52.4905 72.5264 52.475 71.2994 52.5061C70.988 52.5061 70.6766 52.5061 70.605 52.3037C70.5334 52.1013 70.577 51.7463 70.6704 51.3695C70.8448 50.5868 71.0285 49.7657 71.2216 48.9063C71.969 45.3998 72.4672 42.538 72.3209 42.51C72.1745 42.4819 71.4583 45.3126 70.7078 48.8004C70.5303 49.663 70.359 50.4882 70.2002 51.2761C70.1379 51.6404 69.9978 52.0639 70.2251 52.4968C70.2848 52.5986 70.3674 52.685 70.4663 52.7493C70.5652 52.8137 70.6777 52.8541 70.795 52.8674C70.9706 52.8912 71.1487 52.8912 71.3244 52.8674C72.5482 52.7366 73.3018 52.6245 73.2956 52.5591Z" fill="#263238"/>
<path d="M74.6289 66.8465C78.7233 66.2837 82.5809 64.5943 85.771 61.9668C85.771 61.9668 83.0525 68.771 75.1832 69.4561L74.6289 66.8465Z" fill="#FF9A6C"/>
<path d="M74.2426 55.368C74.4263 55.0467 74.6888 54.7775 75.0053 54.5858C75.3218 54.394 75.682 54.2859 76.0518 54.2719C76.3206 54.2564 76.5897 54.2956 76.8429 54.3871C77.0961 54.4786 77.328 54.6206 77.5248 54.8044C77.7152 54.9798 77.8472 55.2094 77.9029 55.4623C77.9585 55.7151 77.9353 55.979 77.8362 56.2181C77.5839 56.7195 76.9238 56.9282 76.329 56.841C75.7331 56.7275 75.1657 56.4967 74.6598 56.1621C74.5091 56.0848 74.3748 55.9791 74.2643 55.8507C74.2101 55.7916 74.1746 55.7177 74.1624 55.6384C74.1502 55.5592 74.1619 55.478 74.1958 55.4054" fill="#FF9A6C"/>
<path d="M76.9455 52.8495C76.7462 52.8681 76.9455 54.1698 75.9708 55.2597C74.9961 56.3497 73.5978 56.4213 73.6134 56.6019C73.6134 56.6891 73.9622 56.8074 74.5476 56.7358C75.3108 56.63 76.0121 56.2584 76.5282 55.6864C77.0234 55.1383 77.2858 54.4191 77.26 53.6809C77.2257 53.1297 77.0327 52.8308 76.9455 52.8495Z" fill="#263238"/>
<path d="M75.5323 39.4329C75.7005 39.7443 76.8713 39.4048 78.3007 39.3581C79.7301 39.3114 80.9259 39.5232 81.066 39.2024C81.1283 39.0498 80.8854 38.7758 80.3778 38.5298C79.7078 38.2372 78.98 38.1009 78.2495 38.1311C77.519 38.1613 76.8049 38.3573 76.1613 38.7042C75.6787 38.9907 75.4576 39.2865 75.5323 39.4329Z" fill="#263238"/>
<path d="M64.0406 39.3086C64.2928 39.5484 65.0745 39.1405 66.0647 38.9754C67.055 38.8104 67.9332 38.8789 68.0702 38.5644C68.1356 38.4118 67.9612 38.1627 67.5564 37.9603C67.0165 37.7278 66.4199 37.6605 65.8418 37.7669C65.2637 37.8733 64.7301 38.1487 64.3084 38.5582C63.9939 38.8914 63.9223 39.1903 64.0406 39.3086Z" fill="#263238"/>
<path d="M92.0893 31.4054C89.8223 26.5973 81.6198 20.6276 76.4131 21.6957L68.6934 27.8491C69.1569 29.2454 69.989 30.4906 71.1017 31.4531C72.2144 32.4156 73.5664 33.0598 75.0149 33.3174C76.5564 33.5728 78.3625 33.4576 79.4151 34.616C80.4676 35.7744 80.2154 37.7674 81.2337 38.9975C82.6444 40.704 85.8083 40.1933 86.948 42.0929C87.4494 42.9212 87.3902 43.9987 87.9009 44.8208C88.586 45.9138 91.7281 47.0006 92.8834 46.4463C94.0387 45.892 93.7772 43.8243 94.0294 42.6814C94.4622 40.7351 94.0512 39.8103 93.69 38.8013C92.846 36.4097 93.173 33.6973 92.0893 31.4054Z" fill="#263238"/>
<path d="M89.436 47.9534C89.3395 47.3056 89.8533 45.6707 90.4761 45.4621C92.139 44.9389 95.2313 44.6057 95.9195 48.9281C96.8537 54.8448 90.7377 54.5614 90.6972 54.3932C90.6567 54.2251 89.7723 50.1768 89.436 47.9534Z" fill="#FFBF9D"/>
<path d="M92.1454 51.8715C92.1703 51.8466 92.2606 51.9275 92.4568 51.9774C92.7181 52.0449 92.9955 52.0068 93.2291 51.8715C93.8145 51.5445 94.182 50.4702 94.0418 49.3989C93.9758 48.8905 93.797 48.4032 93.5187 47.9727C93.4342 47.7967 93.3081 47.6441 93.1513 47.5279C92.9944 47.4118 92.8116 47.3357 92.6187 47.3063C92.4955 47.2935 92.3718 47.3246 92.2692 47.3941C92.1667 47.4636 92.092 47.567 92.0582 47.6862C92.0052 47.8637 92.0582 47.9758 92.0301 47.9976C92.0021 48.0194 91.89 47.9197 91.8962 47.6675C91.9065 47.5166 91.9681 47.3738 92.0706 47.2627C92.213 47.1128 92.409 47.0255 92.6156 47.0198C93.0765 46.9793 93.5498 47.3312 93.8363 47.764C94.1698 48.2361 94.3836 48.7823 94.4591 49.3553C94.6117 50.5511 94.1789 51.7625 93.363 52.158C93.2122 52.2297 93.0473 52.2669 92.8803 52.2669C92.7133 52.2669 92.5484 52.2297 92.3976 52.158C92.1796 52.0023 92.1267 51.8839 92.1454 51.8715Z" fill="#FF9A6C"/>
<path d="M70.2133 25.8586C69.9424 28.3499 66.6197 31.8532 65.2308 33.9178C62.5621 37.8571 62.0887 39.1183 63.0292 47.1402C61.2604 44.5337 59.8404 41.9428 59.6037 38.8007C59.367 35.6586 60.158 32.3982 62.0763 29.9007C63.9945 27.4032 67.0806 25.759 70.2289 25.8524" fill="#263238"/>
<path d="M84.3228 17.4108C85.5684 16.0375 87.3684 15.1437 89.2368 14.6766C91.8993 14.0102 94.8234 14.1908 97.2462 15.3493C99.6689 16.5077 101.544 18.6813 102.033 21.1726C102.273 22.4523 102.16 23.7734 101.705 24.9936C101.251 26.2139 100.473 27.2873 99.4541 28.0982C100.839 29.4413 102.528 30.4305 104.377 30.9819C103.873 31.7386 102.942 32.1808 102.001 32.3396C101.056 32.4578 100.099 32.4515 99.1551 32.3209C99.7994 33.2836 100.764 33.9874 101.877 34.3077C100.344 34.6615 98.7459 34.6089 97.24 34.1551C95.7671 33.7087 94.3574 33.0755 93.0453 32.2711C88.4894 29.6273 85.9764 27.3104 82.8997 23.2403C82.498 21.484 83.0678 18.7872 84.3228 17.4108Z" fill="#263238"/>
<path d="M94.1449 29.8925C90.8004 25.0065 86.5435 22.3938 82.6914 21.5811L94.1449 29.8925Z" fill="#263238"/>
<path d="M82.6914 21.5811C82.8679 21.6517 83.0503 21.7069 83.2364 21.7461C83.5883 21.8457 84.0958 21.9983 84.7062 22.2319C86.2953 22.8492 87.7892 23.6879 89.1437 24.7231C90.4985 25.7559 91.7331 26.9373 92.8246 28.2452C93.2356 28.7527 93.5688 29.1794 93.7837 29.4596C93.8907 29.6185 94.0116 29.7675 94.1449 29.905C94.0549 29.7346 93.9507 29.5721 93.8335 29.4192C93.6342 29.1078 93.3166 28.6874 92.9149 28.1735C91.8508 26.8264 90.6251 25.6152 89.2652 24.5674C87.8944 23.5218 86.3716 22.6922 84.7498 22.1073C84.2606 21.9333 83.7615 21.7888 83.2551 21.6745C83.07 21.6283 82.8815 21.5971 82.6914 21.5811Z" fill="#455A64"/>
<path d="M98.1312 34.0554L98.0565 34.0803L97.8385 34.1675C97.6517 34.2485 97.3714 34.3544 97.0039 34.4789C95.9654 34.8267 94.8882 35.0463 93.7965 35.1329C92.1778 35.2534 90.5502 35.1486 88.9603 34.8215C87.013 34.4124 85.109 33.8191 83.274 33.0496C81.3122 32.2493 79.4624 31.4272 77.8151 30.6206C76.3519 29.9127 74.9436 29.0966 73.6017 28.1792C72.6997 27.5579 71.8479 26.8665 71.0544 26.1115C70.7679 25.8468 70.5624 25.6257 70.4316 25.4886L70.2666 25.3236C70.2292 25.2893 70.2105 25.2707 70.2074 25.2738C70.2043 25.2769 70.2074 25.2956 70.2541 25.3361L70.4067 25.5136C70.5406 25.6693 70.7399 25.8966 71.0295 26.1706C71.8099 26.9477 72.6547 27.6571 73.555 28.2913C74.8922 29.2306 76.3009 30.0636 77.7684 30.7826C79.4188 31.6016 81.2655 32.4299 83.2304 33.2333C85.077 34.005 86.9938 34.5963 88.9541 34.999C90.5597 35.3195 92.2028 35.4097 93.8338 35.2668C94.9241 35.1672 95.9976 34.9307 97.0289 34.563C97.3932 34.4229 97.6703 34.3077 97.8541 34.2143L98.0627 34.1115C98.1094 34.071 98.1343 34.0586 98.1312 34.0554Z" fill="#455A64"/>
<path d="M80.486 63.3813L79.9224 62.2789C79.9628 62.2571 83.8741 60.2516 85.3782 58.9873C88.922 56.0103 92.1793 51.2551 92.2136 51.2021L93.2412 51.9028C93.1042 52.1052 89.8562 56.8479 86.1785 59.9371C84.5592 61.2886 80.6511 63.2972 80.486 63.3813Z" fill="#455A64"/>
<path d="M83.3979 59.9395C83.3979 59.9395 78.0542 62.3248 78.0542 62.8542C78.0542 63.3836 78.9012 64.4424 79.5365 64.3895C80.1718 64.3365 82.0091 63.3026 82.3392 62.8791C82.6692 62.4556 83.2547 61.3657 83.8962 60.8363L83.3979 59.9395Z" fill="#263238"/>
<path d="M93.1979 43.9056L91.9523 43.8465C91.9974 40.2545 91.3788 36.6851 90.1274 33.3178C87.4244 26.3548 82.2271 22.6179 74.6848 22.2068C73.9987 22.1768 73.3114 22.2238 72.6357 22.347L73.1807 21.83C73.4448 21.5808 73.7518 21.3814 74.0869 21.2415C74.5462 21.0495 75.0454 20.9725 75.5412 21.0173C85.064 21.8425 89.3676 27.8962 91.3015 32.9036C92.6189 36.4194 93.2622 40.1518 93.1979 43.9056Z" fill="#455A64"/>
<path d="M92.5754 55.2314C94.7545 55.2314 96.5209 52.6912 96.5209 49.5576C96.5209 46.424 94.7545 43.8838 92.5754 43.8838C90.3964 43.8838 88.6299 46.424 88.6299 49.5576C88.6299 52.6912 90.3964 55.2314 92.5754 55.2314Z" fill="#455A64"/>
<path d="M96.5204 49.5573C96.5167 49.5314 96.5167 49.5052 96.5204 49.4794C96.5204 49.4171 96.5204 49.3424 96.5017 49.249C96.4878 48.9548 96.4577 48.6616 96.4114 48.3708C96.2505 47.298 95.8328 46.2798 95.1938 45.4031C94.9787 45.1197 94.7298 44.8635 94.4527 44.6402C94.1509 44.4025 93.8107 44.2182 93.4468 44.0952C93.0573 43.969 92.6449 43.9297 92.2386 43.98C91.8087 44.0445 91.3972 44.1983 91.0303 44.4315C90.253 44.9723 89.6529 45.7306 89.3051 46.6114C88.9162 47.5492 88.716 48.5545 88.716 49.5697C88.716 50.585 88.9162 51.5903 89.3051 52.5281C89.6525 53.409 90.2528 54.1674 91.0303 54.7079C91.3972 54.9411 91.8087 55.0949 92.2386 55.1595C92.6449 55.2083 93.057 55.169 93.4468 55.0443C93.8107 54.9213 94.1509 54.7369 94.4527 54.4993C94.7291 54.2752 94.9778 54.0191 95.1938 53.7363C95.8328 52.8596 96.2505 51.8415 96.4114 50.7686C96.4575 50.4778 96.4876 50.1846 96.5017 49.8905C96.5017 49.7971 96.5017 49.7223 96.5204 49.66C96.5163 49.6342 96.5163 49.608 96.5204 49.5822C96.5253 49.6079 96.5253 49.6343 96.5204 49.66V49.8905C96.5171 50.1873 96.4963 50.4836 96.4581 50.778C96.3188 51.87 95.91 52.9102 95.2686 53.8049C95.0505 54.0982 94.7974 54.3638 94.515 54.5958C94.2036 54.8473 93.8505 55.0423 93.4718 55.1719C93.0635 55.3059 92.6311 55.3495 92.2043 55.2996C91.7537 55.235 91.3217 55.0758 90.9369 54.8325C90.1312 54.2843 89.5076 53.5079 89.1463 52.6028C88.7455 51.6462 88.5391 50.6194 88.5391 49.5822C88.5391 48.545 88.7455 47.5182 89.1463 46.5615C89.5076 45.6565 90.1312 44.88 90.9369 44.3319C91.3217 44.0886 91.7537 43.9294 92.2043 43.8648C92.6311 43.8149 93.0635 43.8584 93.4718 43.9924C93.8505 44.122 94.2036 44.317 94.515 44.5685C94.7982 44.7997 95.0513 45.0655 95.2686 45.3595C95.911 46.2537 96.3198 47.2941 96.4581 48.3864C96.4962 48.6797 96.517 48.975 96.5204 49.2708V49.5043C96.5225 49.5219 96.5225 49.5397 96.5204 49.5573Z" fill="#263238"/>
<path d="M93.1825 52.8516C94.5704 52.8516 95.6955 51.2343 95.6955 49.2393C95.6955 47.2442 94.5704 45.627 93.1825 45.627C91.7946 45.627 90.6694 47.2442 90.6694 49.2393C90.6694 51.2343 91.7946 52.8516 93.1825 52.8516Z" fill="#455A64"/>
<path d="M95.6954 49.2394C95.6767 49.2394 95.6954 48.9653 95.6051 48.4827C95.5009 47.8059 95.2337 47.1647 94.8266 46.6142C94.5498 46.2366 94.1656 45.9512 93.7242 45.7952C93.4791 45.7163 93.2198 45.6919 92.9644 45.7236C92.695 45.7637 92.4371 45.8603 92.2076 46.007C91.719 46.3474 91.341 46.8238 91.1208 47.3772C90.8745 47.9692 90.7485 48.6044 90.7503 49.2456C90.7472 49.887 90.8732 50.5224 91.1208 51.114C91.341 51.6674 91.719 52.1439 92.2076 52.4842C92.4371 52.6309 92.695 52.7275 92.9644 52.7676C93.2198 52.7993 93.4791 52.7749 93.7242 52.696C94.1656 52.54 94.5498 52.2546 94.8266 51.877C95.2337 51.3265 95.5009 50.6853 95.6051 50.0086C95.6829 49.5259 95.6767 49.2518 95.6954 49.255C95.6995 49.3203 95.6995 49.3858 95.6954 49.4511C95.695 49.6407 95.6825 49.83 95.658 50.0179C95.5754 50.7166 95.3172 51.3829 94.9075 51.9548C94.6222 52.3584 94.2201 52.6648 93.7553 52.833C93.4932 52.9222 93.2145 52.952 92.9394 52.9202C92.6476 52.8749 92.3686 52.7688 92.1205 52.6088C91.6028 52.2575 91.2016 51.7599 90.9682 51.1794C90.7114 50.5665 90.5791 49.9086 90.5791 49.2441C90.5791 48.5795 90.7114 47.9216 90.9682 47.3087C91.2016 46.7282 91.6028 46.2306 92.1205 45.8793C92.3677 45.7198 92.6456 45.6137 92.9363 45.5679C93.2124 45.5363 93.4921 45.5661 93.7553 45.6551C94.2201 45.8233 94.6222 46.1297 94.9075 46.5333C95.3172 47.1052 95.5754 47.7716 95.658 48.4702C95.6825 48.6581 95.695 48.8474 95.6954 49.037C95.6995 49.1044 95.6995 49.172 95.6954 49.2394Z" fill="#263238"/>
<path d="M93.3565 51.8378C94.354 51.8378 95.1626 50.675 95.1626 49.2407C95.1626 47.8063 94.354 46.6436 93.3565 46.6436C92.3589 46.6436 91.5503 47.8063 91.5503 49.2407C91.5503 50.675 92.3589 51.8378 93.3565 51.8378Z" fill="#455A64"/>
<path d="M95.163 49.2396C95.1475 49.2396 95.1475 49.0434 95.0914 48.6977C95.0113 48.2118 94.817 47.7518 94.5247 47.3556C94.3277 47.0868 94.0542 46.8838 93.7399 46.7732C93.5609 46.716 93.3713 46.7 93.1852 46.7264C92.9992 46.7528 92.8215 46.821 92.6656 46.9258C91.9898 47.3711 91.6317 48.3053 91.6286 49.2365C91.6255 50.1676 91.9898 51.1049 92.6656 51.5502C92.8215 51.655 92.9992 51.7232 93.1852 51.7496C93.3713 51.7761 93.5609 51.76 93.7399 51.7028C94.0542 51.5922 94.3277 51.3892 94.5247 51.1205C94.817 50.7242 95.0113 50.2642 95.0914 49.7783C95.1475 49.4326 95.1475 49.2365 95.163 49.2396C95.1705 49.286 95.1705 49.3333 95.163 49.3797C95.1646 49.516 95.1573 49.6523 95.1412 49.7876C95.0852 50.2938 94.9009 50.7772 94.6056 51.1921C94.3954 51.4792 94.1035 51.6963 93.7679 51.8149C93.5767 51.8792 93.3738 51.9015 93.1731 51.8803C92.9606 51.8509 92.7568 51.7766 92.5752 51.6623C92.1983 51.4072 91.9065 51.0449 91.7376 50.6222C91.5502 50.1788 91.4536 49.7023 91.4536 49.2209C91.4536 48.7395 91.5502 48.263 91.7376 47.8196C91.9065 47.3969 92.1983 47.0346 92.5752 46.7795C92.7568 46.6652 92.9606 46.5908 93.1731 46.5615C93.3738 46.5403 93.5767 46.5626 93.7679 46.6269C94.1035 46.7455 94.3954 46.9625 94.6056 47.2497C94.9009 47.6646 95.0852 48.148 95.1412 48.6541C95.1573 48.7895 95.1646 48.9258 95.163 49.0621C95.1742 49.1207 95.1742 49.1809 95.163 49.2396Z" fill="#263238"/>
</svg>
