<svg width="130" height="130" viewBox="0 0 130 130" fill="none" xmlns="http://www.w3.org/2000/svg">
<g clip-path="url(#clip0_1_728)">
<rect width="130" height="130" rx="65" fill="#FEF3EF"/>
<g clip-path="url(#clip1_1_728)">
<path d="M68.0409 108.929L0.778585 129.824C-2.14969 130.726 -4.87981 127.996 -3.97711 125.068L16.9171 57.8057L68.0409 108.929Z" fill="#A684DA"/>
<path d="M70.1098 107.738C75.0108 102.837 67.3436 87.2238 52.9847 72.865C38.6258 58.5061 23.0127 50.8389 18.1117 55.7398C13.2108 60.6408 20.878 76.2539 35.2368 90.6128C49.5957 104.972 65.2089 112.639 70.1098 107.738Z" fill="#CBB2EB"/>
<path d="M58.3965 111.926L45.3844 115.977C42.5002 114.942 39.66 113.709 36.8638 112.256C30.7871 109.108 24.9526 104.99 19.5143 99.9926C18.6336 99.178 17.6649 98.2533 16.6301 97.2405C13.966 94.5764 10.9056 91.1858 7.82324 87.1346L10.4873 78.5039C15.3751 85.8576 20.6592 91.3179 24.3581 94.7085C34.7502 104.242 46.1991 110.032 58.3965 111.926Z" fill="#CBB2EB"/>
<path d="M36.6664 118.66L26.4064 121.853C20.5278 118.748 14.8915 114.719 9.60735 109.875C8.72667 109.061 7.75792 108.136 6.72311 107.123C5.51217 105.912 4.21316 104.547 2.87012 103.028L5.38007 94.9038C8.72667 99.043 11.9412 102.28 14.4511 104.591C21.4305 110.976 28.8503 115.688 36.6664 118.66Z" fill="#CBB2EB"/>
<path d="M18.0828 124.453L9.07776 127.249C5.86326 125.047 2.71481 122.537 -0.279514 119.785C-0.785908 119.323 -1.31432 118.839 -1.86475 118.288L0.535119 110.538C1.98825 112.057 3.37533 113.378 4.56425 114.479C8.90162 118.464 13.4151 121.789 18.0828 124.453Z" fill="#CBB2EB"/>
<path d="M34.992 66.3265L31.7996 63.134C36.8635 58.0701 39.7477 51.575 40.3862 43.803C40.8706 37.9024 39.8138 33.4329 39.7918 33.3889L44.1732 32.3101C44.2172 32.5082 45.4061 37.396 44.8997 44.0011C44.2172 52.83 40.7825 60.536 34.992 66.3265Z" fill="#E35BAD"/>
<path d="M60.3121 94.8374L57.1196 91.6449C63.3505 85.4141 72.1793 82.2656 82.6375 82.5739C90.4095 82.794 96.3101 84.8196 96.5523 84.9077L95.0771 89.157L95.8037 87.0213L95.0771 89.157C95.0111 89.135 89.4848 87.2635 82.3733 87.0654C73.1481 86.8232 65.7063 89.4432 60.3121 94.8374Z" fill="#FE7122"/>
<path d="M44.7229 61.7667C46.3522 59.0586 48.5098 58.354 50.0731 57.8256C51.3941 57.3853 52.2087 57.1211 52.9793 55.8441C53.7499 54.5671 53.6178 53.7305 53.3756 52.3434C53.0894 50.7141 52.7151 48.4904 54.3444 45.7823C55.9736 43.0742 58.1313 42.3696 59.6945 41.8412C61.0156 41.4009 61.8302 41.1367 62.6008 39.8597C63.3714 38.5827 63.2393 37.746 62.9971 36.359C62.7109 34.7297 62.3366 32.506 63.9659 29.7979L67.8188 32.1096C67.0483 33.3866 67.1804 34.2233 67.4225 35.6104C67.7088 37.2396 68.0831 39.4634 66.4538 42.1715C64.8245 44.8796 62.6668 45.5841 61.1036 46.1125C59.7826 46.5529 58.968 46.8171 58.1974 48.0941C57.4268 49.3711 57.5589 50.2077 57.8011 51.5948C58.0873 53.2241 58.4616 55.4478 56.8323 58.1559C55.203 60.864 53.0454 61.5685 51.4822 62.097C50.1611 62.5373 49.3465 62.8015 48.5759 64.0785L44.7229 61.7667Z" fill="#FE7122"/>
<path d="M63.3057 73.8545L61.104 69.9354C63.9442 68.3282 66.234 68.7905 67.9073 69.1428C69.3604 69.429 70.2191 69.6052 71.6282 68.8346C73.0153 68.064 73.3235 67.2273 73.8299 65.8182C74.4023 64.211 75.217 62.0313 78.0572 60.424C80.8974 58.8168 83.1872 59.2791 84.8605 59.6094C86.3136 59.8956 87.1723 60.0718 88.5814 59.3012C89.9684 58.5306 90.2767 57.6719 90.7831 56.2848C91.3555 54.6776 92.1701 52.4979 95.0103 50.8906L97.2121 54.8097C95.825 55.5803 95.5167 56.4389 95.0103 57.826C94.4379 59.4333 93.6233 61.613 90.7831 63.2202C87.9429 64.8275 85.6531 64.3651 83.9798 64.0348C82.5266 63.7486 81.668 63.5725 80.2589 64.3431C78.8718 65.1137 78.5636 65.9503 78.0572 67.3594C77.4847 68.9667 76.6701 71.1464 73.8299 72.7536C70.9897 74.3609 68.6999 73.8985 67.0266 73.5462C65.5735 73.238 64.6928 73.0619 63.3057 73.8545Z" fill="#E35BAD"/>
<path d="M91.8617 74.1414C93.102 74.1414 94.1075 73.1359 94.1075 71.8956C94.1075 70.6554 93.102 69.6499 91.8617 69.6499C90.6214 69.6499 89.616 70.6554 89.616 71.8956C89.616 73.1359 90.6214 74.1414 91.8617 74.1414Z" fill="#CBB2EB"/>
<path d="M81.8239 100.428C83.0642 100.428 84.0696 99.4226 84.0696 98.1823C84.0696 96.942 83.0642 95.9365 81.8239 95.9365C80.5836 95.9365 79.5781 96.942 79.5781 98.1823C79.5781 99.4226 80.5836 100.428 81.8239 100.428Z" fill="#FFB992"/>
<path d="M102.541 81.3186C103.781 81.3186 104.786 80.3132 104.786 79.0729C104.786 77.8326 103.781 76.8271 102.541 76.8271C101.3 76.8271 100.295 77.8326 100.295 79.0729C100.295 80.3132 101.3 81.3186 102.541 81.3186Z" fill="#A684DA"/>
<path d="M84.2008 50.2517C85.4411 50.2517 86.4466 49.2463 86.4466 48.006C86.4466 46.7657 85.4411 45.7603 84.2008 45.7603C82.9605 45.7603 81.9551 46.7657 81.9551 48.006C81.9551 49.2463 82.9605 50.2517 84.2008 50.2517Z" fill="#CBB2EB"/>
<path d="M51.0849 33.6726C52.3251 33.6726 53.3306 32.6672 53.3306 31.4269C53.3306 30.1866 52.3251 29.1812 51.0849 29.1812C49.8446 29.1812 48.8391 30.1866 48.8391 31.4269C48.8391 32.6672 49.8446 33.6726 51.0849 33.6726Z" fill="#E35BAD"/>
<path d="M66.6962 53.115C67.9365 53.115 68.9419 52.1096 68.9419 50.8693C68.9419 49.629 67.9365 48.6235 66.6962 48.6235C65.4559 48.6235 64.4504 49.629 64.4504 50.8693C64.4504 52.1096 65.4559 53.115 66.6962 53.115Z" fill="#FE7122"/>
<path d="M49.633 80.9871C50.8732 80.9871 51.8787 79.9816 51.8787 78.7414C51.8787 77.5011 50.8732 76.4956 49.633 76.4956C48.3927 76.4956 47.3872 77.5011 47.3872 78.7414C47.3872 79.9816 48.3927 80.9871 49.633 80.9871Z" fill="#A684DA"/>
<path d="M26.0741 44.3509C27.3144 44.3509 28.3199 43.3454 28.3199 42.1051C28.3199 40.8648 27.3144 39.8594 26.0741 39.8594C24.8338 39.8594 23.8284 40.8648 23.8284 42.1051C23.8284 43.3454 24.8338 44.3509 26.0741 44.3509Z" fill="#F7C9E3"/>
</g>
</g>
<defs>
<clipPath id="clip0_1_728">
<rect width="130" height="130" rx="65" fill="white"/>
</clipPath>
<clipPath id="clip1_1_728">
<rect width="108.941" height="100.816" fill="white" transform="translate(-4.15503 29.1836)"/>
</clipPath>
</defs>
</svg>
