<svg width="29" height="30" viewBox="0 0 29 30" fill="none" xmlns="http://www.w3.org/2000/svg">
<path d="M12.0387 23.4805C12.6427 23.3527 16.3225 23.3527 16.9274 23.4805C17.4437 23.5997 18.0024 23.878 18.0026 24.4863C17.9726 25.0656 17.6323 25.5791 17.1628 25.9053C16.5539 26.3799 15.8394 26.6808 15.0925 26.7891C14.6794 26.8426 14.2733 26.8438 13.8747 26.7891C13.1266 26.6807 12.4119 26.3801 11.8044 25.9043C11.3337 25.5794 10.9936 25.0655 10.9635 24.4863C10.9637 23.8781 11.5225 23.5997 12.0387 23.4805ZM14.5544 2.66309C17.0679 2.66309 19.6356 3.85614 21.1608 5.83496C22.1502 7.10904 22.6041 8.38175 22.6042 10.3604V10.875C22.6042 12.3926 23.0057 13.2876 23.8884 14.3184C24.5571 15.0777 24.7712 16.0529 24.7712 17.1104C24.7711 18.1665 24.4234 19.1693 23.7282 19.9834C22.8179 20.9593 21.5343 21.5821 20.2243 21.6904C18.3257 21.8523 16.4257 21.9893 14.5007 21.9893C12.5744 21.9893 10.6757 21.9071 8.77702 21.6904C7.46575 21.5821 6.18219 20.9593 5.27312 19.9834C4.57788 19.1693 4.22926 18.1665 4.22917 17.1104C4.22917 16.0528 4.4443 15.0778 5.11198 14.3184C6.02228 13.2876 6.39714 12.3926 6.39714 10.875V10.3604C6.39717 8.32815 6.90345 6.99912 7.94695 5.69824C9.49853 3.80096 11.9863 2.66309 14.4469 2.66309H14.5544Z" fill="#CFCFCF"/>
</svg>
