<svg width="24" height="25" viewBox="0 0 24 25" fill="none" xmlns="http://www.w3.org/2000/svg">
<path d="M12.8664 0.663574C13.7802 0.663574 14.6077 1.17124 15.0646 1.92041C15.2868 2.28279 15.4346 2.72963 15.3977 3.20068C15.373 3.56309 15.4843 3.9259 15.6818 4.26416C16.3116 5.29124 17.7075 5.67814 18.7941 5.09814C20.0165 4.39753 21.56 4.82014 22.2639 6.01611L23.091 7.44189C23.8072 8.63814 23.4118 10.1731 22.1769 10.8618C21.1277 11.4781 20.7575 12.8433 21.3869 13.8823C21.5844 14.2085 21.8069 14.4866 22.1525 14.6558C22.5847 14.8853 22.9179 15.2484 23.1525 15.6108C23.6094 16.3599 23.5726 17.2779 23.1281 18.0874L22.2639 19.5376C21.807 20.3109 20.955 20.7944 20.0783 20.7944C19.6461 20.7944 19.1639 20.6738 18.7687 20.4321C18.4478 20.2269 18.0778 20.1538 17.6828 20.1538C16.4603 20.1538 15.4348 21.1568 15.3977 22.353C15.3977 23.7426 14.262 24.8305 12.842 24.8306H11.1623C9.7299 24.8305 8.59394 23.7426 8.59394 22.353C8.56917 21.1568 7.54395 20.1538 6.32148 20.1538C5.91407 20.1538 5.54322 20.2268 5.23457 20.4321C4.83948 20.6736 4.34567 20.7944 3.92597 20.7944C3.03691 20.7944 2.18461 20.3109 1.72773 19.5376L0.876168 18.0874C0.419361 17.302 0.394886 16.36 0.851753 15.6108C1.04934 15.2484 1.41923 14.8853 1.83906 14.6558C2.1848 14.4866 2.40746 14.2086 2.61738 13.8823C3.23445 12.8432 2.86407 11.478 1.81464 10.8618C0.592128 10.1731 0.196708 8.63814 0.900582 7.44189L1.72773 6.01611C2.44396 4.82002 3.97536 4.39746 5.21015 5.09814C6.28448 5.67814 7.67998 5.29124 8.30976 4.26416C8.50729 3.92587 8.61864 3.56313 8.59394 3.20068C8.56934 2.72963 8.70513 2.28279 8.93964 1.92041C9.39652 1.17129 10.2238 0.687795 11.1252 0.663574H12.8664ZM12.0148 9.33936C10.0761 9.33936 8.50703 10.8622 8.50703 12.7593C8.50718 14.6562 10.0762 16.1665 12.0148 16.1665C13.9533 16.1663 15.4844 14.6561 15.4846 12.7593C15.4846 10.8623 13.9534 9.33956 12.0148 9.33936Z" fill="#AAAAAA" fill-opacity="0.56"/>
</svg>
