<svg width="24" height="25" viewBox="0 0 24 25" fill="none" xmlns="http://www.w3.org/2000/svg">
<path d="M8.53786 23.3475V19.6528C8.53786 18.7096 9.30804 17.945 10.2581 17.945H13.7311C14.1873 17.945 14.6249 18.125 14.9475 18.4452C15.2701 18.7655 15.4513 19.1999 15.4513 19.6528V23.3475C15.4484 23.7397 15.6033 24.1167 15.8816 24.395C16.1599 24.6732 16.5386 24.8298 16.9336 24.8297H19.303C20.4096 24.8326 21.4718 24.3982 22.2553 23.6224C23.0388 22.8466 23.4792 21.7932 23.4792 20.6946V10.1689C23.4791 9.28148 23.0829 8.43973 22.3972 7.87039L14.3369 1.47976C12.9348 0.359265 10.9259 0.395443 9.56568 1.56569L1.68931 7.87039C0.971231 8.42295 0.542045 9.26719 0.520836 10.1689V20.6839C0.520836 22.9736 2.39059 24.8297 4.69705 24.8297H7.01235C7.83273 24.8298 8.49946 24.1727 8.5054 23.3583L8.53786 23.3475Z" fill="#3575DF"/>
</svg>
