<svg width="24" height="24" viewBox="0 0 24 24" fill="none" xmlns="http://www.w3.org/2000/svg">
<path d="M8.55 3.95166C7.91487 3.95166 7.4 4.46653 7.4 5.10166C7.4 5.73679 7.91487 6.25166 8.55 6.25166H15.45C16.0851 6.25166 16.6 5.73679 16.6 5.10166C16.6 4.46653 16.0851 3.95166 15.45 3.95166H8.55Z" fill="white"/>
<path d="M5.1 8.55166C5.1 7.91653 5.61487 7.40166 6.25 7.40166H17.75C18.3851 7.40166 18.9 7.91653 18.9 8.55166C18.9 9.18679 18.3851 9.70166 17.75 9.70166H6.25C5.61487 9.70166 5.1 9.18679 5.1 8.55166Z" fill="white"/>
<path d="M2.8 13.1517C2.8 11.8814 3.82974 10.8517 5.1 10.8517H18.9C20.1703 10.8517 21.2 11.8814 21.2 13.1517V17.7517C21.2 19.0219 20.1703 20.0517 18.9 20.0517H5.1C3.82974 20.0517 2.8 19.0219 2.8 17.7517V13.1517Z" fill="white"/>
</svg>
